<?xml version="1.0" encoding="utf-8"?>
<!-- Generator: Adobe Illustrator 22.0.1, SVG Export Plug-In . SVG Version: 6.00 Build 0)  -->
<svg version="1.1" id="Warstwa_1" xmlns="http://www.w3.org/2000/svg" xmlns:xlink="http://www.w3.org/1999/xlink" x="0px" y="0px"
	 viewBox="0 0 49.3 49.3" style="enable-background:new 0 0 49.3 49.3;" xml:space="preserve">
<style type="text/css">
	.st0{fill:#666666;}
</style>
<g>
	<g>
		<path class="st0" d="M24.7,0C18,0,17.1,0,14.5,0.1c-2.6,0.1-4.4,0.5-6,1.1c-1.6,0.6-3,1.5-4.4,2.8C2.8,5.5,1.9,6.9,1.3,8.5
			c-0.6,1.6-1,3.4-1.1,6C0,17.1,0,18,0,24.7c0,6.7,0,7.5,0.1,10.2c0.1,2.6,0.5,4.4,1.1,6c0.6,1.6,1.5,3,2.8,4.4
			c1.4,1.4,2.7,2.2,4.4,2.8c1.6,0.6,3.4,1,6,1.1c2.6,0.1,3.5,0.1,10.2,0.1c6.7,0,7.5,0,10.2-0.1c2.6-0.1,4.4-0.5,6-1.1
			c1.6-0.6,3-1.5,4.4-2.8c1.4-1.4,2.2-2.7,2.8-4.4c0.6-1.6,1-3.4,1.1-6c0.1-2.6,0.1-3.5,0.1-10.2c0-6.7,0-7.5-0.1-10.2
			c-0.1-2.6-0.5-4.4-1.1-6c-0.6-1.6-1.5-3-2.8-4.4c-1.4-1.4-2.7-2.2-4.4-2.8c-1.6-0.6-3.4-1-6-1.1C32.2,0,31.4,0,24.7,0L24.7,0
			L24.7,0z M24.7,4.4c6.6,0,7.4,0,10,0.1c2.4,0.1,3.7,0.5,4.6,0.8c1.2,0.4,2,1,2.8,1.8c0.9,0.9,1.4,1.7,1.8,2.8
			c0.3,0.9,0.7,2.2,0.8,4.6c0.1,2.6,0.1,3.4,0.1,10c0,6.6,0,7.4-0.1,10c-0.1,2.4-0.5,3.7-0.8,4.6c-0.4,1.2-1,2-1.8,2.8
			c-0.9,0.9-1.7,1.4-2.8,1.8c-0.9,0.3-2.2,0.7-4.6,0.8c-2.6,0.1-3.4,0.1-10,0.1c-6.6,0-7.4,0-10-0.1c-2.4-0.1-3.7-0.5-4.6-0.8
			c-1.2-0.4-2-1-2.8-1.8c-0.9-0.9-1.4-1.7-1.8-2.8c-0.3-0.9-0.7-2.2-0.8-4.6c-0.1-2.6-0.1-3.4-0.1-10c0-6.6,0-7.4,0.1-10
			c0.1-2.4,0.5-3.7,0.8-4.6c0.4-1.2,1-2,1.8-2.8C8.1,6.4,9,5.9,10.1,5.4c0.9-0.3,2.2-0.7,4.6-0.8C17.3,4.5,18.1,4.4,24.7,4.4"/>
		<path class="st0" d="M24.7,32.9c-4.5,0-8.2-3.7-8.2-8.2c0-4.5,3.7-8.2,8.2-8.2c4.5,0,8.2,3.7,8.2,8.2
			C32.9,29.2,29.2,32.9,24.7,32.9L24.7,32.9z M24.7,12c-7,0-12.7,5.7-12.7,12.7c0,7,5.7,12.7,12.7,12.7c7,0,12.7-5.7,12.7-12.7
			C37.3,17.7,31.7,12,24.7,12L24.7,12z"/>
		<path class="st0" d="M40.8,11.5c0,1.6-1.3,3-3,3c-1.6,0-3-1.3-3-3c0-1.6,1.3-3,3-3C39.5,8.5,40.8,9.9,40.8,11.5L40.8,11.5z"/>
	</g>
</g>
</svg>
