<?xml version="1.0" encoding="utf-8"?>
<!-- Generator: Adobe Illustrator 22.0.1, SVG Export Plug-In . SVG Version: 6.00 Build 0)  -->
<svg version="1.1" id="Warstwa_1" xmlns="http://www.w3.org/2000/svg" xmlns:xlink="http://www.w3.org/1999/xlink" x="0px" y="0px"
	 viewBox="0 0 164.8 202.9" style="enable-background:new 0 0 164.8 202.9;" xml:space="preserve">
<style type="text/css">
	.st0{fill:#4D4D4D;}
	.st1{fill:#C2986D;}
</style>
<g>
	<g>
		<g>
			<g>
				<path class="st0" d="M17.8,116c-0.4-4.9-0.5-5.8-0.6-6.8c-0.1-1.1-0.5-1.4-1.5-1.6c-0.3,0-0.8,0-1.3,0c-0.3,0-0.6-0.1-0.6-0.3
					c0-0.2,0.2-0.3,0.7-0.4c1.7-0.2,3.7-0.3,4.7-0.4c1-0.1,3.3-0.4,5.2-0.6c4-0.4,9.5-0.8,13.2,2.6c1.7,1.5,3.3,4.1,3.5,8
					c0.2,4-1.3,7.2-3,9.2c-1.3,1.6-4.5,4.1-10.3,4.6c-1.1,0.1-2.5,0.1-3.8,0.1c-1.2,0-2.4,0-3.2,0.1c-0.4,0-1,0.1-1.8,0.2
					c-0.7,0.1-1.5,0.2-2.2,0.3c-0.4,0-0.6,0-0.6-0.3c0-0.2,0.1-0.4,0.5-0.4c0.5,0,0.8-0.1,1.1-0.2c0.6-0.2,0.8-0.8,0.8-1.8
					c0-1.4-0.2-3.9-0.4-6.8C18,119.4,17.9,118.2,17.8,116z M22.3,119.1c0.3,3.4,0.5,5.8,0.6,6.5c0.1,0.8,0.3,1.9,0.5,2.2
					c0.4,0.5,1.7,1.1,4.2,0.9c2.9-0.3,4.9-1,6.7-2.8c1.9-1.9,2.4-4.8,2.2-8.2c-0.2-4.1-2-6.6-3.5-7.8c-3.1-2.5-6.7-2.5-9.2-2.3
					c-0.7,0.1-1.7,0.3-2,0.4c-0.2,0.2-0.4,0.3-0.4,0.7c0.1,1.1,0.2,3.7,0.4,6.3C22.1,116.7,22.2,117.5,22.3,119.1z"/>
				<path class="st0" d="M42,116.8c-0.3-5.5,3.1-12.9,12.9-13.3c8.2-0.4,13.3,4.2,13.5,11.6c0.1,7.4-4.8,13.2-12.9,13.6
					C46.4,129.1,42.3,122.5,42,116.8z M63.7,116.4c-0.2-7.1-4.4-11.4-9.6-11.1c-3.6,0.2-7.7,2.4-7.4,10.3c0.3,6.6,4.1,11.6,10,11.4
					C59,126.8,63.9,125.5,63.7,116.4z"/>
				<path class="st0" d="M71.8,112.7c-0.1-4.9-0.1-5.8-0.1-6.8c-0.1-1.1-0.4-1.4-1.4-1.7c-0.3-0.1-0.8-0.1-1.3-0.1
					c-0.3,0-0.6-0.1-0.6-0.3c0-0.2,0.3-0.3,0.7-0.3c1.7,0,3.7,0,4.4,0c1.6,0,3.8-0.1,4.9-0.1c5.9,0,6.9,3.1,6.9,4.8
					c0,2.5-3.6,5.6-3.6,5.6c0,0.3,5.9,3.2,5.9,7c0,3.4-2.6,7-8.4,7c-0.4,0-1.4,0-2.5-0.1c-1.1,0-2.2,0-2.7,0c-0.4,0-1.1,0-1.8,0.1
					c-0.7,0-1.5,0.1-2.2,0.1c-0.4,0-0.6-0.1-0.6-0.3c0-0.2,0.1-0.3,0.5-0.4c0.5,0,0.8-0.1,1.1-0.1c0.6-0.2,0.8-0.8,0.9-1.7
					c0.1-1.4,0.1-3.9,0-6.8C71.9,116.1,71.8,115,71.8,112.7z M76,113.2c0,0.3,0.1,0.3,0.2,0.3c0.3,0.1,0.8,0.1,1.5,0.1
					c1.1,0,2-0.1,2.5-0.6c0.8-0.7,1.5-1.9,1.4-3.4c0-2.2-1.3-4.9-4.1-4.8c-0.4,0-1.1,0-1.4,0.1c-0.2,0-0.3,0.2-0.3,0.5
					C75.9,108.5,75.9,110.1,76,113.2z M76,122.7c0,2.1,0.1,2.8,1.1,3.2c0.8,0.3,1.5,0.4,2.3,0.4c1.7,0,3.9-1,3.9-4.6
					c0-1.5-0.7-4-3-5.7c-0.7-0.5-1.5-0.8-2.8-0.8c-0.6,0-0.8,0-1.4,0c-0.1,0-0.2,0-0.2,0.2C76,118.3,76,119.7,76,122.7z"/>
				<path class="st0" d="M89,115.5c0-5.5,3.8-12.6,13.7-12.4c8.2,0.2,13.1,5.2,12.8,12.5c-0.3,7.4-5.6,12.9-13.7,12.7
					C92.7,128,89,121.2,89,115.5z M110.7,116.6c0.2-7.1-3.8-11.7-9-11.8c-3.6-0.1-7.8,1.8-7.9,9.7c-0.1,6.6,3.4,11.9,9.4,12.1
					C105.3,126.7,110.4,125.8,110.7,116.6z"/>
				<path class="st0" d="M117.7,128.1c-0.5-0.3-0.6-0.4-0.6-1.1c0.1-1.7,0.3-3.8,0.4-4.3c0-0.5,0.2-0.8,0.4-0.8
					c0.3,0,0.3,0.3,0.3,0.5c0,0.4,0.1,1.1,0.2,1.7c0.6,2.4,2.9,3.3,4.9,3.5c2.7,0.2,4.5-1.5,4.6-3.8c0.1-1.4-0.2-2.8-2.9-4.7
					c-0.7-0.5-1.1-0.7-1.8-1.3c-3.6-2.5-4.8-4.7-4.7-7.6c0.2-3.9,3.9-6.3,8.4-6c2.1,0.1,3.7,0.6,4.6,0.8c0.3,0.1,0.4,0.2,0.4,0.4
					c0,0.4-0.2,1.3-0.3,3.8c0,0.7-0.2,1-0.5,1c-0.2,0-0.3-0.2-0.3-0.6c0-0.3-0.1-1.3-0.7-2.2c-0.4-0.6-1.4-1.6-3.5-1.8
					c-2.3-0.1-4.5,1-4.6,3.2c-0.1,1.4,0.4,2.6,3.2,4.4c0.5,0.3,0.8,0.5,1.3,0.8c4.1,2.7,5.2,5.3,5.1,8.2c-0.1,2.4-1.1,4.2-3.5,5.8
					c-1.6,1-3.6,1.1-5.3,1C121,129.1,119,128.8,117.7,128.1z"/>
				<path class="st0" d="M145.9,128.6c3.2,0.3,4.4-0.2,5-1.2c0.3-0.5,0.6-1,0.7-1.4c0.1-0.3,0.2-0.5,0.4-0.5c0.3,0,0.3,0.3,0.2,1
					c-0.1,1.1-0.6,3.1-0.9,3.9c-0.2,0.5-0.5,0.8-1,0.7c-5.2-0.5-10.5-1.2-16.9-1.7c-0.4,0-0.5-0.2-0.5-0.4c0-0.2,0.1-0.4,0.4-0.9
					c4.9-6.7,10-13.6,14.8-19.7c-2.4-0.2-3.6-0.3-6.1-0.6c-1.6-0.1-3.6-0.3-4.6,0.2c-1.1,0.5-1.7,1.6-1.9,2.3
					c-0.1,0.4-0.3,0.5-0.4,0.5c-0.2,0-0.3-0.2-0.3-0.6c0-0.8,0.8-3.7,0.9-4.6c0.1-0.4,0.2-0.6,0.4-0.6c0.3,0,0.5,0.2,1.3,0.3
					c3.1,0.4,4.6,0.5,5.9,0.6c4,0.4,6,0.6,9.9,1c0.3,0,0.5,0.2,0.5,0.3c0,0.3-0.1,0.4-0.2,0.6c-4.5,6.6-10.4,13.6-15.3,20
					C141.3,128.2,142.8,128.3,145.9,128.6z"/>
			</g>
		</g>
		<path class="st0" d="M164.8,140c0,0-40.7-3.6-82.4-3.6C40.6,136.4,0,140,0,140s40.6-6.1,82.3-6.1C123.9,133.8,164.8,140,164.8,140
			z"/>
		<path class="st0" d="M91.3,94.4l0.8-1.1l0.7,0.8l2,0.1c0,0-0.2,0.2-1,0.9c-1.1,1-2.1,0.3-2.1,0.3l-0.7-0.7L91.3,94.4z"/>
		<g>
			<path class="st0" d="M78.2,50.8c-0.2-0.2-0.5-0.3-0.8-0.3c-0.5,0-1,0.1-1,0.4c0,0.3,0.4,0.5,1,0.5c0.4,0,0.7-0.1,0.9-0.2
				c0,0,0,0,0,0L90,52.5c0.1,0.6,1,1.6,1.4,1.9l1.3-0.4c0.8-0.1,1.3-0.3,1.5-0.8c0-0.2,0.3-0.9,0.6-1.7c0.3,0.1,0.5,0.2,0.5,0.2
				s2.5-3.1,2.1-3.5c-0.7-0.8-3.6-2-4.5-2.3c-0.4-0.1-1.3,2.8-1.4,3.4c0,0.1,0.1,0.3,0.4,0.6l-1.2,0.7c-0.4,0.4-0.6,0.5-1.4,0.8
				c0,0,0,0.1,0,0.1C86.7,51,80.6,50.8,78.2,50.8z M92.3,52.5C92.3,52.6,92.3,52.6,92.3,52.5c-0.3,0.1-0.6,0.4-0.9,0.3
				c-0.1,0-0.3-0.2-0.6-0.2L92.3,52.5z M73.1,19.5l-0.3,0.7l1-0.6l-0.2,0.7c0.4-0.4,0.7-1.1,1.3-1.2l0,1.2l0.7-1.1
				c-0.2-0.6-0.3-1.1,0-1.5L74.1,17c-0.4,0.8-1,1.2-1.7,1.5H73L71.9,20L73.1,19.5z M75.3,14.7c0.6-0.1,1.1-0.9,0.8-1.6
				c0.4-0.9,0.2-1.7-0.3-2.6c0.1,1-0.1,1.9-0.7,2.4C74.2,13.6,74.8,14.6,75.3,14.7z M81.4,15.5c-0.2-0.5-0.6-0.7-0.9-0.6
				c-0.3,0.1-0.4,0.6-0.3,1.1c0.2,0.5,0.6,0.7,0.9,0.6C81.5,16.4,81.6,15.9,81.4,15.5z M74.7,16.9l0.2-0.2c0.1-0.3,0.1-0.7-0.1-1.1
				c0-0.3,0-0.3,0.3-0.1c0.2,0.2,0.3,0.5,0.3,0.7l0.1,0.4l0.3-0.1c0.1-0.2,0.1-0.4,0-0.7c-0.2-0.3-0.4-0.6-0.8-0.8
				c-0.3-0.1-0.4,0-0.5,0.2c-0.1,0.4-0.3,1-0.2,1.3L74.7,16.9z M89.7,12.6c-0.2-0.4-5.5,1.4-5.5,1.4s1.6,0.1,2.6,0.2
				c2.8,0.2,3.6-0.6,3.6-0.6S89.9,12.9,89.7,12.6z M87.8,20.7c-0.2,0.4,0.1,1.5,0.1,1.5s1-0.6,1.6-2.6c0.2-0.6,0.2-2.7,0.2-3.5
				c-0.3,0.1-0.4,0.4-1.3,0.2c0,0.5,0.2,1.1,0.3,1.5c0.3,1,0.3,1.2-0.6,1.2c-0.4,0-0.6,0-0.6,0s-0.1,0.6,0,0.9c0,0.2,0,0.3,0.1,0.3
				c0.3,0.1,1-0.1,1-0.1S88.5,20.7,87.8,20.7z M86.8,15.9c0.2,0,0.2-0.2,0.1-0.2c0,0,0-0.1-0.1-0.1c-0.2,0-0.3,0-0.5,0.1
				c-0.6,0.1-1.3,0.2-1.9,0.3c-0.2,0.1-0.1,0.3,0.1,0.2c0,0,0.1,0,0.1,0c0,0,0.1,0.1,0.1,0.1c0.1,0,0.2,0,0.3,0
				c0.5,0.4,1.3,0.7,1.9-0.1c0.1-0.1-0.1-0.1-0.2,0c0,0,0.1-0.1,0.1-0.2C86.8,15.9,86.8,15.9,86.8,15.9z M90.8,23.1
				C90.8,23.2,90.8,23.2,90.8,23.1c-0.1,0.6-0.1,1.2-0.7,2c-0.1,0.2-0.5,0.4-0.5,0.7c0.2,0.3,2.8,4.2,1.5,8.2c0.3,0,0.8-0.3,1.2-0.2
				c2.7,0.6-2.1,12.5-2.1,12.5c2.4-3,4.1-6.6,4.8-10.2c0,1.5-0.1,2.7-0.1,3C94.9,40,93.7,45,93.7,45l3.8,1.7c0,0,0.8-1.4,2.3-5
				c0.9-2.1,1.1-2.9,1.4-4.1c0.8-3.1-4.9-14.1-5.9-15.2c-1.7-1.8-3.2-2.1-4.7-1.7C90.6,20.7,90.9,22.4,90.8,23.1z M85.6,74.3
				c-0.1-2.4-1.5-6-2.6-7.8c-1-1.6-3.9-4.4-6.1-6.5c-1.3-1.3-1.9-3-2.1-4.6l6.8,0.9c0.1,0,0.1,0,0.2,0c0.2,0.1,0.4,0.2,0.6,0.2
				c0.5,0.1,1,0,1.1-0.3c0-0.3-0.4-0.5-0.9-0.6c-0.5-0.1-0.9,0-1,0.2c-1.5-0.4-4.3-1-6.9-1.5C74.6,53,74.7,52,74.7,52
				c-0.3,0.8-0.5,1.5-0.5,2.3c-0.4-0.1-0.8-0.1-1.2-0.2c4.7-12,11.2-5.8,11.5-5.6c0-0.1,0.1-0.3,0.1-0.6c-0.2-0.8-0.5-4.2-0.6-5.5
				c-0.2-1.7-0.2-4.5-0.2-5.4c0.1-0.9-0.2-2.3,1-3.3c0.3-0.3,1.4,0.1,1.9,0.3c0,0,0.2-2.4-0.6-4.9c-0.2-0.5-0.3-0.9-1-1.9
				c-1.3-1.5-3-3.6-3.8-4.8c-0.6-0.9-1.3-2.8-1.3-3.9c0,0.5-0.2,1.2-0.3,1.7c-0.3,1.5-2.6,2.6-2.6,2.6c2.6,0.5,2.7,3.3,2.7,3.8
				c0-0.1-1.1-3.2-4.2-2.8c-0.8,0.1-1.6,0.3-2,0.7c-0.7,0.4-1.1,0.9-1.1,0.9c-2.6,2.5-5.3,8.8-6,11.7c-0.7,2.9-1.8,6.9-1.8,6.9
				l3.4,1.8c0,0,2.9-6.3,4.4-8.8c0.4-0.6,1-1.5,1.6-2.3c0.7,2.3,1.5,5.2,1.2,6.6c-0.5,2.4-0.7,2.3-2.7,6c-0.8,1.4-1.2,4.1-1.6,6.2
				c-0.2,0-0.4,0-0.6-0.1c0.1-0.1,0.1-0.2,0.1-0.3c-0.7-0.3-0.8-0.5-1.2-1.1l-1.8-1.6c0.2,0,0.4-0.1,0.5-0.1
				c0.6-0.3,0.9-3.1,0.5-3.2c-1.1-0.3-4.5-3-4.5-2.2c0,0.8-0.6,4.1-0.2,5.2c0,0.1,0.2,0.2,0.4,0.2c0,0.9,0.7,2.7,0.6,3
				c0.1,0.5,0.9,1.3,1.6,1.5l1.2,0.7c0.5-0.1,1.4-0.8,1.7-1.3l1.3,0.2c-0.1,0.4-0.2,0.7-0.3,1C70,57.7,68.5,59,68.5,59
				s2.6-1.4,3.5-2.9c0,0,0.3-0.6,0.5-1.1l1.6,0.2c0,5.6,6.1,8.8,9.3,15.1c0.9,1.7,0.2,7.5,0.2,8.1c0,0.6,1.5,4,1.7,4.8
				c0.5-0.2,1.5-1.7,1.7-2.1C86.3,79.9,85.7,76.1,85.6,74.3z M68.4,54.4c-0.2,0-0.4-0.1-0.6-0.3l0.8,0.2
				C68.5,54.4,68.4,54.4,68.4,54.4z M68.2,53.5c0.3-0.1,0.7-0.1,1.1,0.1c0.2,0.1,0.4,0.1,0.6,0.1C69.4,53.8,68.7,53.7,68.2,53.5z
				 M97.1,84.9c1.5-1.1,2.5-0.3,2.5-0.3S99.4,84,97.7,84c-0.9,0-1.7,0.5-2.6,1.9c-0.9,1.3-2.3,2.5-3.2,2.8c-0.9,0.3-1.8-0.9-1.8-0.9
				s1,0.2,2.1-0.2C93.3,87.4,93,87,93,87l-0.2-0.9l0.3-4.6c0,0-1.4-2.6-2.5-2.3c-1.2,0.3-4.7,5.8-4.7,5.8s0.7,2.8,1.5,4.2
				c0.8,1.4,1.2,2.4,1.5,1.9c0.8-1.3,0.7-2.2,0.7-2.2s0.5,1.5,0.1,3.2c-0.1,0.7,0.9,2,0.9,2s1.4-1.4,2.1-2.7
				C93.3,90,95.8,85.9,97.1,84.9z M98.9,84.9c-0.8,0-1.7,0.7-2.7,1.9c-1,1.2-3.6,5.9-3.6,5.9l2.9,0.8c0,0,0-0.2,1.2-2.1
				c0.5-0.8,2.8-3.1,3.3-4.3C100.5,85.8,99.7,84.9,98.9,84.9z M77.9,71.3c0.3-1.2,0.2-5.7,0.1-6.1c-0.1-0.4-1,5.5-1.6,6.5
				c-0.7,1-3.2,5-3.2,5s1.4,0.7,1.8,0.5C76.6,76.5,77.6,72.5,77.9,71.3z M79,89.9c-1.9-1.1-2.9-2.4-2.9-2.4s0.7-1.3-1-1.3
				c-1.7,0.1-2.4,1.2-2.4,1.2s0.1-1.2,1.3-1.7c1.5-0.6,2.8-0.8,2.8-0.8s1.7-3.8,2.5-6c0.2-0.6-1.2,0.3-2.2,0.3c-2.6,0.1-4.7-1-4.7-1
				s-1.8,3.6-1.9,5.1c-0.1,1.5,0.2,1.7,0.2,1.7l0,1c0,0-1-1-1.5,1.8c-0.3,1.3-0.2,2.8-0.2,2.8l3.1,1.3c0,0,0.9-0.8,2.1-0.7
				c1.1,0.2,1.9,1.6,2.5,1.8c0.6,0.2,3,0.3,4.1,0.2c1.1,0,2-0.8,1.6-1.4C82.1,91.5,80.9,91,79,89.9z M103.7,68.6L103.7,68.6l0-0.1
				c0,0,0,0,0-0.1l0,0v0l0-0.1c0,0,0,0,0,0l0,0c0,0,0,0,0-0.1c0,0,0,0,0,0c0,0,0,0,0,0c0,0,0-0.1,0-0.1c0,0,0-0.1-0.1-0.1
				c0,0,0,0,0,0l-0.1-0.1l-0.1-0.1c0,0,0,0,0,0l0,0c0.1,0.1,0.1,0.2,0.1,0.3l0,0c0,0.1,0,0.3,0,0.4c0,0.1-0.1,0.2-0.1,0.3
				c0,0,0,0.1,0,0.1c0,0.1-0.1,0.2-0.1,0.2c0,0.1-0.1,0.1-0.1,0.2c0,0,0,0.1-0.1,0.1c0,0-0.1,0.1-0.1,0.1c0,0.1-0.1,0.1-0.1,0.2
				c0,0-0.1,0.1-0.1,0.1c-0.1,0.1-0.1,0.1-0.2,0.2c0,0.1-0.1,0.1-0.1,0.2c-0.1,0.2-0.3,0.3-0.4,0.5c0,0,0,0,0,0
				c-0.2,0.2-0.4,0.4-0.6,0.5c0,0-0.1,0.1-0.1,0.1c-0.2,0.1-0.3,0.3-0.5,0.4c0,0-0.1,0.1-0.1,0.1c-0.2,0.2-0.4,0.3-0.6,0.5
				c0,0,0,0,0,0c0,0,0,0,0,0c-0.2,0.1-0.3,0.2-0.5,0.4c-0.1,0.1-0.3,0.2-0.4,0.3c-0.1,0.1-0.3,0.2-0.4,0.3c0,0-0.1,0-0.1,0.1
				c-0.1,0.1-0.2,0.2-0.4,0.2c0,0,0,0,0,0c-0.2,0.1-0.4,0.2-0.6,0.3c0,0,0,0,0,0c-0.1,0-0.1,0.1-0.2,0.1c-0.1,0.1-0.3,0.1-0.4,0.2
				c0,0-0.1,0-0.1,0c-0.1,0.1-0.2,0.1-0.3,0.2c-0.1,0.1-0.2,0.1-0.3,0.2c0,0-0.1,0-0.1,0c-0.4,0.2-0.7,0.3-1,0.4c0,0-0.1,0-0.1,0.1
				c-0.3,0.1-0.7,0.2-1,0.3c0,0,0,0,0,0c-0.3,0.1-0.5,0.1-0.7,0.2c-0.1,0-0.1,0-0.2,0c-0.3,0.1-0.7,0.1-0.9,0.2c-0.1,0-0.1,0-0.2,0
				c-0.2,0-0.4,0-0.6,0c-0.1,0-0.1,0-0.2,0c-0.2,0-0.3-0.1-0.4-0.1c0,0-0.1,0-0.1-0.1c-0.1-0.1-0.3-0.2-0.3-0.3l0.1,0.2
				c0.1,0.1,0.1,0.2,0.3,0.4c0,0,0.1,0,0.1,0.1l0,0c0,0,0,0,0,0l0.1,0c0.1,0.1,0.1,0.1,0.2,0.1c0,0,0,0,0,0c0,0,0,0,0,0
				c0,0,0.1,0,0.2,0.1l0.2,0.1c0.1,0,0.2,0,0.3,0c0,0,0,0,0.1,0c0,0,0,0,0.1,0l0.3,0c0.1,0,0.3,0,0.5,0l0,0h0c0,0,0.1,0,0.1,0
				c0,0,0,0,0,0l0.2,0c0.1,0,0.3-0.1,0.5-0.1l0.4-0.1c0.1,0,0.3-0.1,0.5-0.1l0.4-0.1c0.1,0,0.3-0.1,0.5-0.2l0.5-0.2
				c0.1-0.1,0.3-0.1,0.5-0.2l0.5-0.2c0.1-0.1,0.3-0.2,0.5-0.2l0.1,0c0,0,0,0,0,0l0.3-0.2c0.1-0.1,0.3-0.2,0.5-0.3l0.3-0.2
				c0,0,0,0,0,0c0,0,0,0,0,0l0.2-0.1c0.1-0.1,0.3-0.2,0.5-0.3l0.4-0.3c0,0,0,0,0,0c0.1-0.1,0.2-0.1,0.3-0.2c0,0,0.1-0.1,0.1-0.1l0,0
				c0,0,0.1-0.1,0.1-0.1l0,0c0.1,0,0.1-0.1,0.2-0.1l0,0c0,0,0,0,0.1-0.1c0,0,0.1-0.1,0.1-0.1c0.1-0.1,0.2-0.1,0.2-0.2l0,0
				c0.1-0.1,0.1-0.1,0.2-0.2l0.1-0.1c0,0,0.1-0.1,0.1-0.1l0,0c0.1-0.1,0.2-0.2,0.3-0.2l0.3-0.2c0.1-0.1,0.2-0.2,0.2-0.2
				c0,0,0,0,0.1-0.1c0,0,0,0,0,0l0,0c0,0,0.1-0.1,0.1-0.1l0.1-0.1l0.1-0.1c0,0,0,0,0,0c0.1-0.1,0.1-0.1,0.2-0.2c0,0,0,0,0,0
				c0,0,0-0.1,0.1-0.1l0,0c0.1-0.1,0.1-0.2,0.2-0.3c0,0,0,0,0,0c0.1-0.1,0.1-0.2,0.2-0.3c0,0,0,0,0-0.1l0,0c0,0,0-0.1,0.1-0.1
				l0.1-0.1l0,0c0,0,0,0,0,0c0.1-0.1,0.1-0.2,0.2-0.4l0.1-0.2l0-0.2L103.7,68.6L103.7,68.6L103.7,68.6
				C103.7,68.7,103.7,68.7,103.7,68.6L103.7,68.6C103.7,68.7,103.7,68.7,103.7,68.6z M92.2,76c0,0-0.1,0-0.1,0
				C92.1,76,92.1,76,92.2,76C92.2,76,92.2,76,92.2,76z M99.9,72.7c-0.1,0-0.1,0.1-0.2,0.1c0,0,0,0-0.1,0
				C99.7,72.8,99.8,72.7,99.9,72.7C99.9,72.7,99.9,72.7,99.9,72.7z M101.5,71.4C101.5,71.4,101.5,71.4,101.5,71.4
				C101.5,71.4,101.5,71.4,101.5,71.4C101.5,71.4,101.5,71.4,101.5,71.4z M102.1,70.9C102.1,70.9,102,70.9,102.1,70.9L102.1,70.9
				c-0.2,0.2-0.3,0.3-0.4,0.4c0.3-0.2,0.5-0.5,0.7-0.7C102.2,70.7,102.2,70.8,102.1,70.9z M85.2,65.6l2.8,4.8
				c0.6,0.7,0.9,1.1,1.7,1.8c0-0.6,0-1,0-1.7l-2.8-4.8c0,0,0,0,0,0C86.1,65.9,85.6,65.8,85.2,65.6C85.2,65.6,85.2,65.6,85.2,65.6
				C85.2,65.6,85.2,65.6,85.2,65.6z M101,65.7c-0.2-0.9-0.4-1.5-0.7-2.4l-2.7-4.8v0c0,0,0,0.1,0,0.1c0,0,0,0.1,0,0.1c0,0,0,0,0,0
				c0,0.1,0,0.1-0.1,0.2c0,0.1,0,0.1-0.1,0.2c0,0.1-0.1,0.1-0.1,0.2c0,0.1-0.1,0.1-0.1,0.2c0,0.1-0.1,0.1-0.1,0.2
				c-0.1,0.1-0.1,0.2-0.2,0.3c-0.1,0.1-0.1,0.2-0.2,0.3c0,0,0,0,0.1-0.1c0,0,0,0,0,0l2.7,4.8C100.1,65.2,100.4,65.4,101,65.7z
				 M90.3,74.9c0,0,0.3,0.1,0.8,0.1l-1.4-2.5l0.1,0.1c-0.2-0.2-0.4-0.4-0.5-0.5c-0.3-0.1-0.6-0.2-0.7-0.4l1.1,1.9
				C89.6,73.6,90.1,74.6,90.3,74.9z M88.5,71.7L88.5,71.7L88.5,71.7C88.5,71.7,88.5,71.7,88.5,71.7z M96,70.1c0.2-1,0.3-1.5,0.4-2.5
				l-2.7-4.8c0.1,0,0.1-0.1,0.2-0.1c-0.1,0-0.1,0.1-0.2,0.1c-0.1,0.1-0.3,0.2-0.4,0.3c-0.1,0.1-0.3,0.2-0.4,0.2
				c-0.1,0.1-0.2,0.1-0.4,0.2c-0.1,0.1-0.2,0.1-0.3,0.2c-0.1,0.1-0.2,0.1-0.3,0.2c-0.1,0.1-0.2,0.1-0.3,0.2
				c-0.1,0.1-0.2,0.1-0.3,0.2c-0.1,0-0.2,0.1-0.3,0.2c-0.1,0-0.2,0.1-0.2,0.1c0,0,0.1,0,0.1,0c0,0,0,0,0.1,0l2.8,4.8
				C94.4,69.5,94.9,69.7,96,70.1z M89.9,64.9c-0.1,0-0.2,0.1-0.3,0.1c-0.1,0-0.2,0.1-0.3,0.1c-0.1,0-0.2,0.1-0.4,0.1
				c-0.1,0-0.3,0.1-0.4,0.1c-0.1,0-0.3,0.1-0.4,0.1c-0.2,0.1-0.4,0.1-0.5,0.1c-0.1,0-0.1,0-0.2,0c0,0,0,0,0,0c0,0,0,0,0,0l2.8,4.8
				c0.8,0.5,1.3,0.8,2.2,1.3c0.2-0.8,0.2-1.2,0.5-2.2l-2.7-4.8c0,0,0.1,0,0.1,0C90.1,64.8,90,64.8,89.9,64.9z M99.1,67.9
				c0-1,0-1.6,0-2.6l-2.7-4.8c-0.1,0.1-0.2,0.2-0.3,0.3c-0.4,0.4-0.8,0.7-1.2,1.1c-0.2,0.2-0.4,0.3-0.7,0.5c0,0,0,0,0,0c0,0,0,0,0,0
				l2.8,4.7C97.8,67.4,98.4,67.6,99.1,67.9z M96.3,60.5L96.3,60.5C96.3,60.5,96.3,60.5,96.3,60.5C96.3,60.5,96.3,60.5,96.3,60.5z
				 M101.1,70.3l1.2-1.4c0-0.1,0.1-0.1,0.1-0.2c0,0,0,0,0,0l-1.4-2.4c-0.1-0.1-0.3-0.2-0.4-0.2c-0.3,0.4-0.6,0.8-1.1,1.3
				c0,0.2,0,0.5,0,0.8l1.4,2.4C101,70.4,101.1,70.4,101.1,70.3z M99.1,68.5c-0.2-0.1-0.4-0.2-0.6-0.2c-0.6,0.4-1.2,0.9-1.8,1.3
				c0,0.2-0.1,0.5-0.1,0.7l1.4,2.4c0.1,0,0.2-0.1,0.3-0.2c0,0,0,0,0,0l2-1.4c0.1-0.1,0.2-0.2,0.3-0.2l-1.4-2.5L99.1,68.5z
				 M100.5,70.9L100.5,70.9C100.6,70.8,100.6,70.8,100.5,70.9z M101.1,65.1c0,0.1,0,0.1-0.1,0.2c0.1,0.2,0.1,0.5,0.2,0.7l1.4,2.4
				c0,0,0,0,0,0c0,0,0-0.1,0.1-0.1l0.2-0.5c0-0.1-0.7-1.3-0.8-1.5l-1-1.8C101.2,64.6,101.2,64.8,101.1,65.1z M93.4,74.7
				C93.4,74.7,93.4,74.7,93.4,74.7C93.4,74.7,93.4,74.7,93.4,74.7L93.4,74.7z M92.3,72.3c-0.2-0.1-0.5-0.3-0.7-0.4
				C91,72,90.5,72.1,90,72.2c0,0.1,0,0.4,0,0.5l1.4,2.4h0.2l1.8-0.3c0.1,0,0.2-0.1,0.3-0.1L92.3,72.3z M95.9,70.6L95.9,70.6
				C95.9,70.7,95.9,70.7,95.9,70.6L95.9,70.6z M94.6,74.4C94.6,74.4,94.6,74.3,94.6,74.4l2.4-1.1c0.1,0,0.1-0.1,0.2-0.1
				c0,0,0.1,0,0.1-0.1l-1.4-2.4c-0.2-0.1-0.5-0.2-0.7-0.3c-0.3,0.2-0.7,0.4-1.1,0.5c-0.4,0.2-0.7,0.3-1.1,0.5c0,0.2-0.1,0.5-0.1,0.6
				l1.4,2.4C94.4,74.4,94.5,74.4,94.6,74.4z M82.2,62.2c-0.1,0.5,0,0.8,0.3,1c0.2,0.2,0.6,0.3,1,0.3c0.4,0,0.8,0,1.4-0.1
				c0.5-0.1,1-0.2,1.6-0.4c0.6-0.2,1.2-0.4,1.8-0.7c0.1-0.1,0.2-0.1,0.4-0.2c0.6-0.3,1.2-0.6,1.8-1c2.8-1.7,5.2-3.8,5.8-5.3
				c0.1-0.1,0.1-0.3,0.1-0.4c0-0.2,0-0.4,0-0.6c-0.1-0.2-0.2-0.4-0.4-0.5c-0.2-0.1-0.5-0.2-0.9-0.2c-0.4,0-0.8,0-1.3,0.1
				c-0.6,0.1-1.2,0.3-2,0.5c-0.6,0.2-1.2,0.5-1.8,0.8c-0.5,0.3-1,0.5-1.5,0.8c-3.1,1.8-5.7,4.1-6.2,5.7C82.3,62,82.2,62.1,82.2,62.2
				z M83.8,61.2c0.4-1.2,2.4-3.1,4.8-4.4c0.4-0.2,0.8-0.4,1.2-0.6c0.5-0.2,1-0.4,1.4-0.6c0.6-0.2,1.1-0.3,1.5-0.4
				c0.4-0.1,0.7-0.1,1-0.1c0.3,0,0.5,0.1,0.7,0.2c0.2,0.1,0.3,0.2,0.3,0.4c0,0.1,0,0.3,0,0.4c0,0.1-0.1,0.2-0.1,0.3
				c-0.5,1.2-2.3,2.8-4.5,4.1c-0.5,0.3-0.9,0.5-1.4,0.8c-0.1,0-0.2,0.1-0.3,0.1c-0.5,0.2-1,0.4-1.4,0.6c-0.4,0.1-0.8,0.3-1.2,0.3
				c-0.4,0.1-0.8,0.1-1.1,0.1c-0.4,0-0.6-0.1-0.8-0.2c-0.2-0.2-0.3-0.5-0.2-0.8C83.8,61.3,83.8,61.2,83.8,61.2z M86.6,65.3
				c0.2,0,0.4-0.1,0.6-0.2c0.2,0,0.3-0.1,0.5-0.1c0.1,0,0.3-0.1,0.4-0.1c0.1,0,0.3-0.1,0.4-0.1c0.1,0,0.3-0.1,0.4-0.2
				c0.1,0,0.2-0.1,0.4-0.2c0.1,0,0.2-0.1,0.4-0.2c0.1,0,0.2-0.1,0.3-0.1c0,0,0.1,0,0.1,0c0.1-0.1,0.2-0.1,0.4-0.2
				c0.1-0.1,0.2-0.1,0.4-0.2c0.1-0.1,0.2-0.1,0.4-0.2c0.1-0.1,0.2-0.1,0.4-0.2c0.1-0.1,0.2-0.1,0.4-0.2c0.1-0.1,0.2-0.1,0.4-0.2
				c0.1-0.1,0.3-0.2,0.4-0.3c0.1-0.1,0.3-0.2,0.4-0.3c0.2-0.1,0.3-0.2,0.5-0.3c0.2-0.1,0.4-0.3,0.6-0.4c0.3-0.2,0.5-0.4,0.8-0.6
				c0.5-0.4,1-0.8,1.4-1.3c0.2-0.2,0.4-0.4,0.5-0.6c0.1-0.1,0.2-0.2,0.3-0.4c0.1-0.1,0.1-0.2,0.2-0.3c0.1-0.1,0.1-0.2,0.2-0.3
				c0-0.1,0.1-0.2,0.1-0.2c0-0.1,0.1-0.1,0.1-0.2c0-0.1,0.1-0.1,0.1-0.2c0-0.1,0-0.1,0.1-0.2c0,0,0,0,0-0.1c0,0,0-0.1,0-0.1
				c0-0.1,0-0.1,0-0.2c0,0,0-0.1,0-0.1c0-0.1,0-0.1,0-0.1c0-0.1,0-0.1,0-0.1c0,0,0-0.1-0.1-0.1l-0.1-0.1l-0.7-1.2c0,0,0,0.1,0.1,0.1
				c0,0,0,0.1,0,0.1c0,0,0,0.1,0,0.1c0,0,0,0.1,0,0.1c0,0,0,0.1,0,0.2c0,0,0,0.1,0,0.1c0,0,0,0,0,0.1c0,0.1,0,0.1,0,0.2
				c0,0.1,0,0.1-0.1,0.2c0,0.1-0.1,0.1-0.1,0.2c0,0.1-0.1,0.2-0.1,0.2c0,0.1-0.1,0.2-0.2,0.3c-0.1,0.1-0.1,0.2-0.2,0.3
				c-0.1,0.1-0.2,0.2-0.3,0.4c-0.2,0.2-0.3,0.4-0.5,0.6c-0.4,0.4-0.9,0.8-1.4,1.3c-0.2,0.2-0.5,0.4-0.8,0.6
				c-0.2,0.1-0.4,0.3-0.5,0.4c-0.2,0.1-0.3,0.2-0.5,0.3c-0.1,0.1-0.3,0.2-0.4,0.3c-0.1,0.1-0.3,0.2-0.4,0.2
				c-0.1,0.1-0.2,0.1-0.4,0.2c-0.1,0.1-0.2,0.1-0.4,0.2c-0.1,0.1-0.2,0.1-0.4,0.2c-0.1,0.1-0.2,0.1-0.4,0.2
				c-0.1,0.1-0.2,0.1-0.4,0.2c-0.1,0.1-0.2,0.1-0.4,0.2c0,0-0.1,0-0.1,0c-0.1,0-0.2,0.1-0.3,0.1c-0.1,0.1-0.2,0.1-0.4,0.2
				c-0.1,0.1-0.2,0.1-0.4,0.2c-0.1,0.1-0.3,0.1-0.4,0.2c-0.1,0-0.3,0.1-0.4,0.2c-0.1,0.1-0.3,0.1-0.4,0.1c-0.2,0.1-0.3,0.1-0.5,0.2
				C86.2,64,86,64,85.8,64.1c-1.6,0.4-2.7,0.3-3-0.3l0.7,1.3C83.9,65.6,85,65.7,86.6,65.3z M80.5,14.1c2.5-1.4,5.5-3,8.6-2.8
				L88.8,10L89,9.5c-0.8,0.7-1.5,0.9-2.9,0.7c-1-0.1-2.7-1.4-3.8-1.5c-1.4-0.1-3.8,0.9-5,1.4c0,0,2.5-1.2,3.3-1.6
				c0.8-0.4,1.6-0.5,2.5-0.4c1,0.1,2,1.3,3.5,1.3c0.9,0,1.3-0.3,1.8-0.8c0.3-0.3,0.9-0.9,1.4-1.3l1.2-2.8c-1.2-0.4-3.1-1.1-5.7-2.5
				c-0.6-0.3-1-1-1.5-0.3c-4.1,5.2-6,5.8-6,5.8c2-2,3.7-4.6,5.6-6.9c0.5-0.3,1-0.3,1.5,0.1l2.2,1.4c1.6,1,3.2,1.6,4.1,2l0.1-0.2
				L85,0.4c-1.1-0.8-1.9-0.4-2.4,0.3L77.4,7l-2.5,2.7c1.7,0.7,3.3,1.7,4.8,3.3L80.5,14.1z M88.3,5.5L88.6,5l0.3,0.5l0.6,0.1L89,6
				l0.1,0.6l-0.5-0.3L88,6.6L88.1,6l-0.4-0.4L88.3,5.5z M86.4,7.3l0.3-0.6L87,7.3l0.6,0.1l-0.5,0.4l0.1,0.6l-0.6-0.3l-0.6,0.3
				l0.1-0.6l-0.5-0.4L86.4,7.3z M83.7,6.2l0.3-0.5l0.3,0.5l0.6,0.1l-0.4,0.4l0.1,0.6L83.9,7l-0.5,0.3l0.1-0.6l-0.4-0.4L83.7,6.2z
				 M84.2,25.4l3.4,0.9c0,0,1.4-0.8,1.7-1.4l0.4-2l-1.5,0.3c-0.4,0.7-0.8,2.4-1.1,2l-0.6-2.1c0,0-0.1,0-0.4,0
				c-1.7-1.2-3.1-3.6-4.3-6.7l-0.7,0.7c1.3,3.2,3,5.2,4.8,6c-0.8,0-2.1-0.1-2.4-0.2C83.5,23,84.1,24.4,84.2,25.4z M87.5,37
				c0,0.2,0.2,0.3,0.5,0.3c0.2,0,0.5-0.1,0.5-0.3c0-0.2-0.2-0.3-0.5-0.3C87.7,36.7,87.5,36.8,87.5,37z M88.2,33.2
				c-0.2,0-0.5,0.1-0.5,0.3c0,0.2,0.2,0.3,0.5,0.3c0.2,0,0.5-0.1,0.5-0.3C88.7,33.3,88.5,33.2,88.2,33.2z M87.2,28.7
				c0.4,0,0.7-0.2,0.7-0.5c0-0.3-0.3-0.5-0.7-0.5c-0.4,0-0.7,0.2-0.7,0.5C86.5,28.5,86.8,28.7,87.2,28.7z M88.1,31.3
				c-0.3,0-0.6,0.2-0.6,0.4c0,0.2,0.3,0.4,0.6,0.4c0.3,0,0.6-0.2,0.6-0.4C88.7,31.5,88.5,31.3,88.1,31.3z M90.2,33
				c-0.2,0-0.5,0.1-0.5,0.3c0,0.2,0.2,0.3,0.5,0.3c0.2,0,0.5-0.1,0.5-0.3C90.6,33.2,90.4,33,90.2,33z M88.5,30
				c0-0.3-0.3-0.5-0.7-0.5c-0.4,0-0.7,0.2-0.7,0.5c0,0.3,0.3,0.5,0.7,0.5C88.2,30.4,88.5,30.2,88.5,30z M90.5,35.1
				c0-0.2-0.2-0.3-0.5-0.3c-0.3,0-0.5,0.1-0.5,0.3c0,0.2,0.2,0.3,0.5,0.3C90.3,35.5,90.5,35.3,90.5,35.1z M88.6,35.3
				c0-0.2-0.2-0.3-0.5-0.3c-0.2,0-0.5,0.2-0.5,0.3c0,0.2,0.2,0.3,0.5,0.3C88.4,35.6,88.6,35.4,88.6,35.3z M89.4,36.9
				c0,0.2,0.2,0.3,0.5,0.3c0.3,0,0.5-0.1,0.5-0.3c0-0.2-0.2-0.3-0.5-0.3C89.6,36.6,89.4,36.7,89.4,36.9z M90.1,31.2
				c-0.3,0-0.6,0.2-0.6,0.4c0,0.2,0.3,0.4,0.6,0.4c0.3,0,0.6-0.2,0.6-0.4C90.6,31.3,90.4,31.2,90.1,31.2z M89.8,29.3
				c-0.4,0-0.7,0.2-0.7,0.5c0,0.3,0.3,0.5,0.7,0.5c0.4,0,0.7-0.2,0.7-0.5C90.4,29.5,90.1,29.3,89.8,29.3z M89.1,27.5
				c-0.4,0-0.7,0.2-0.7,0.5c0,0.3,0.3,0.5,0.7,0.5c0.4,0,0.7-0.2,0.7-0.5C89.8,27.8,89.5,27.5,89.1,27.5z"/>
		</g>
	</g>
	<g>
		<path class="st1" d="M45.3,174.7c-1.8,2.8-3.5,4.3-6.9,4.7c-1.6-0.6-2.6-0.6-3.9-1.9c-0.4,0.6-0.9,1.1-1.3,1.8
			c-0.1,0.6-0.1,1.3-0.1,1.9c0,0.7,0.1,1.5,0.1,2.3c0.1,1.5,1.6,2.6,1.6,3.8c0,0.4-0.4,0.7-0.8,0.8c-0.5-0.2-0.7-0.7-1.1-1
			c-0.5-0.4-2.3-0.7-3-0.7c-2.8,1.2-4,2.8-5.5,5.2c-0.1,0.4-0.1,0.9-0.1,1.3c0,0.9,0.1,1.7,0.3,2.5c0.7,0.9,1.6,2,2.9,2
			c2.4,0,4.8-0.7,7.2-1.2c2.3-0.5,4.6-1.8,6.8-2.8c0.7-0.4,2.7-3.1,3.1-3.1c0.2,0,0.4,0.1,0.4,0.3c0,0.3-1.1,1.8-1.3,2.1
			c-3.6,4.1-12.1,6.9-17.5,6.9c-2.8,0-3.9-2.3-3.9-4.8c0-1.1,0.1-2.2,0.5-3.2c1.2-3.4,5.3-6.9,9.1-6.7c-0.2-0.7-0.3-1.3-0.3-2.1
			c0-2,1-4.7,2.3-6.2c-1.1-1.1-1.9-4.3-1.9-5.9c0-0.3,0.3-0.8,0.6-0.8c0.2,0,0.4,0.1,0.6,0.1c0.3,0.9,0.7,1.8,1,2.7
			c0.2,0.6,0.4,1.2,0.8,1.7c0.1,0.1,0.4,0.3,0.5,0.5c1.6-1.5,5.4-4.5,7.6-4.5c1.3,0,3.2,0.6,3.2,2.1
			C46.2,173.4,45.7,174.1,45.3,174.7z M43.1,172c-1.5,0-5.9,3.1-7.1,4.1c0.7,0.9,1.9,2.1,3.1,2.1c1.7,0,5.6-3,5.6-4.8
			C44.6,172.6,43.9,172,43.1,172z"/>
		<path class="st1" d="M55,186.4c0,1.8-1.6,3.3-2.3,4.2c-0.3,0.9-0.3,2.1-0.9,3.5c-0.2,0.5-0.9,1.4-0.9,1.5c0.1,0.3,1.2-0.3,1.3-0.4
			c1.2-0.7,1.8-1.1,2.5-1.4c0.5-0.3,0.8-0.3,0.2,0.3c-0.4,0.4-2,1.4-2.7,1.8c0,0-2,1.1-2.3,1.2c-0.1,0-1.8,2.5-2.3,2.8
			c-0.6,0.3-1.6,0.3-2.3,0.3c-0.2,0-0.6-0.3-0.7-0.4c-0.6-1.1,1.4-2.2,1.8-2.3c0.1-0.1,0.4-0.3,0.6-0.4c0.1,0,1.6-0.7,1.8-0.7
			c0.4-0.1,2.2-2.8,2.5-4.7c0-0.1,0-0.2-0.1-0.3c-0.2-0.1-0.5,0.1-0.7,0.2c-0.4,0.2-1,0.7-1.1,0.7c-1,0.6-1.6,0.8-3.1,1.6
			c-0.4,0.2-0.8,0.4-1,0.5c-0.1,0-0.1,0-0.1-0.1c0-0.3,0.8-0.7,1-0.8c1.8-1.2,4.4-2.8,6-4.2c0.7-1.3,1.8-3.4,2.4-3.4
			C54.5,185.9,55,186.2,55,186.4z M47.1,198.7c0.4-0.2,0.8-0.7,1.1-1.1C45.8,198.2,45.9,199.3,47.1,198.7z"/>
		<path class="st1" d="M68.2,186.5c-2.8,2.7-7.8,7.9-8.1,8.4c-1.2,1.1-4.6,5.3-8.1,7c-0.7,0.3-1.2-0.5-0.9-0.8
			c3.4-3.1,6.8-6.1,9.4-9.5c0.1-0.1,0-0.3-0.2-0.3c-0.3,0-4,2.2-5,2.8c-0.8,0.4-1.3,0.1-0.6-0.3c1.6-0.9,8.3-3.9,13-9.7
			c0.6-1.3,0.1-1.1-0.5-1.1c-2,0.1-4.8,0-9,0.3c-3,0.3-6.7,0.2-9.7,0.2c-1.9,0-3.8,0-5.8,0c-0.6,0-1-0.9,0.4-0.9h5.7
			c2.6,0,5.8-0.1,8.4-0.2c6.1-0.3,8.1-0.6,10.7-0.6c2,0,2.1,0.1,3.6-1c2.6-2.2,6.7-6.1,8-6.1c0.7,0,0.6,0.7,0.6,1.2
			c0,0.5-3.5,3.4-5.3,4.9c-0.6,0.5-0.3,0.7,0.5,0.7c0.7,0,1.5-0.1,2.2-0.1c2.6,0,5.3,0,7.9,0.5c0,0,3.2,0.3,3,1.1
			c-0.5,1.2-1.6,0.4-2.3,0.1c-2.5-0.9-8.4-0.5-9.6-0.5c-1.1,0-2.3,0.2-3.4,0.4c-0.3,0-0.5,0-1.5,0.7L68.2,186.5z"/>
		<path class="st1" d="M70.5,194.9c0,0.7-0.9,1.6-1.3,1.6c-0.6,0-1.8-0.3-1.8-1.1c0-0.2,1.5-1.8,2.3-1.8c0.3,0,0.7,0.9,0.8,1.2
			C70.5,194.8,70.5,194.8,70.5,194.9z"/>
		<path class="st1" d="M109,176c0.1,0.6-2.3,2.4-2.6,2.6c-1.4,1.3-3.2,2.9-4.7,4.1c-0.5,0.6-1.1,1.7-2.1,2.1c-1.7,2-6.6,7.1-8.2,9.1
			c-0.7,0.9-3.2,3.1-3.7,3.1s-1-0.1-1.2-0.7c-0.1-0.3,2.6-2.7,2.8-2.9c1-0.9,4.5-4.7,4.5-4.8c0.1-0.3,5-5,4.7-5.6
			c0-0.1-0.1-0.3-0.3-0.3c-0.1,0-0.3,0.1-0.4,0.1c0,0-1.1,0.6-1.2,0.6c-2.3,0.7-4.6,1.3-6.7,2.1c-0.2,0.1-2.3,0.5-2.6,0.5
			c-0.2,0-0.3-0.1-0.4-0.3c-0.4-1,3.4-1.4,3.9-1.6c1.8-0.7,4.2-0.9,5.6-1.5c1.4-0.6,2.9-1,3.8-1.8c0.9-0.6,2.9-1.7,4.1-2.3
			c0.6-0.4,2.8-3,4.1-3C108.4,175.5,108.9,175.7,109,176z"/>
		<path class="st1" d="M114.6,181.7c-0.8,1-1.9,1.9-2.8,2.9c-1.1,1.1-1.9,2.5-3,3.6c-0.8,0.8-1.7,1.5-2.5,2.4
			c-1.7,1.9-3.4,3.8-5.1,5.6c-2,2.1-4.2,4-6.2,6.1c-0.4,0.4-0.9,0.7-1.5,0.7c-0.5,0-0.9-0.6-0.9-1c0-1,1.7-2.5,2.6-2.8
			c0.6-0.2,1-0.2,1.6-0.7c0.5-0.4,0.9-1,1.3-1.6c1-1.2,2.4-2.1,3.5-3.1c1.7-1.5,3.1-3.3,4.7-4.9c0.9-1,2.1-1.7,3-2.6
			c-1.1,0.6-2.6,1.2-4,1.2c-0.9,0-1.9-0.5-1.9-1.5c0-2.1,6.3-6.5,8.2-6.5c0.2,0,0.4,0.2,0.4,0.4c0,0.1-0.3,0.3-0.3,0.5
			c-0.4,0.9-1,0.9-1.9,1.2c-1.7,0.4-4.7,2.5-4.7,4.5c0,0.3,0.3,0.4,0.5,0.4c0.4,0,0.9-0.3,1.3-0.5c2.6-1.1,4.5-1.8,5.6-4.7
			c0.2-0.6,0.3-1.5,1.2-1.5c0.6,0,1.2,0.5,1.2,1.1C115,181.1,114.8,181.4,114.6,181.7z"/>
		<path class="st1" d="M133.5,175.7c0,0.4-1,0.9-2.5,1.6c-1.6,0.7-3.8,1.2-5.3,2.7c-0.3,0.2-0.4,0.3-0.6,0.4
			c-1.2,0.8-2.6,2.1-3.7,3.1c-0.5,0.3-2.7,2-2.7,3.1c0,0,0,0.3,0.2,0.3c1.9,0,4.4-1.7,5.6-2.5c0,0,2.1-1.5,3.5-2.5
			c2.2-1.8,4.6-4,5.3-4c0.3,0,0.7,0.3,0.7,0.6c0,0.4-1.5,1.8-3.3,3.2c-1.5,1.2-2.8,2.3-3.7,3.2c-0.1,0.1-0.6,0.5-0.7,0.6
			c-0.6,0.3-0.8,0.9-1.2,1.3c-0.3,0.4-0.7,0.7-1.1,1.1c-1,0.9-1.9,2.1-2.8,3c-0.4,0.4-0.7,0.8-0.9,1c-0.5,0.7-1.6,2-2,2.3
			c-0.6,0.5-1.5,1.4-2.4,2.3c-1.4,1.5-3.1,3.3-4.3,3.3c-0.6,0-1-0.4-0.9-0.7c1.1-0.9,3.4-2.8,4.4-4.1s7-6.9,7-7.4
			c0-0.1-0.1-0.1-0.1-0.1c0,0-0.1,0.1-0.4,0.3c-0.7,0.4-2.5,1.1-4.2,1.1c0,0-1.2,0-1.2-0.7c0-0.9,0.2-1.3,1-2.1c1.6-1.8,3.5-4,6-6
			c2.7-2.2,7.8-5,9.5-5C133.2,175,133.5,175.4,133.5,175.7z"/>
		<path class="st1" d="M138.6,185.3c0,1.2,1.3,2,1.3,3.2c0,2.4-2.2,5-4,6.4c-0.4,0.3-0.8,0.4-1.2,0.6c-0.7,0.5-0.7,1-1.7,1
			c-1.9,0-2.3-0.9-3.2-2.3c-0.3-0.5-0.7-1.1-0.7-1.7c0-0.2,0.1-0.9,0.4-0.9c2.2,0,1.2,2.4,3.2,2.4c2,0,5.6-3.9,5.6-5.9
			c0-1.2-1.4-3.1-1.1-3.8c0-0.1-0.1-0.3-0.1-0.4c0-1,1.8-1.4,2.5-1.9c0.5-0.4,2.6-2.4,2.6-3.1c0-0.3-0.3-0.7-0.6-0.7
			c-1.3,0-4.5,1.4-5.1,2.6c-0.6,1.3,0,3.6-2.3,3.6c-0.4,0-0.8-1.1-0.8-1.5c0-1.1,1.9-3.4,2.8-4c1.3-0.8,2.6-1.5,4-2.1
			c0.3-0.1,0.6-0.4,1-0.4c1,0,2.3,1.2,2.3,2.2C143.5,181,138.6,184.6,138.6,185.3z"/>
	</g>
</g>
</svg>
