<?xml version="1.0" encoding="utf-8"?>
<!-- Generator: Adobe Illustrator 22.0.1, SVG Export Plug-In . SVG Version: 6.00 Build 0)  -->
<svg version="1.1" id="Warstwa_1" xmlns="http://www.w3.org/2000/svg" xmlns:xlink="http://www.w3.org/1999/xlink" x="0px" y="0px"
	 viewBox="0 0 275.4 145.3" style="enable-background:new 0 0 275.4 145.3;" xml:space="preserve">
<style type="text/css">
	.st0{fill:#DBD4CE;}
	.st1{fill:#4D4D4D;}
</style>
<g>
	<g>
		<path class="st0" d="M275.4,145.3c0,0-68.9-15.9-141.7-15.9C58.8,129.4,0,145.3,0,145.3V0h275.4V145.3z"/>
		<g>
			<g>
				<g>
					<g>
						<path class="st1" d="M70.5,67.9c-0.4-4.9-0.5-5.8-0.6-6.8c-0.1-1.1-0.5-1.4-1.5-1.6c-0.3,0-0.8,0-1.3,0
							c-0.3,0-0.6-0.1-0.6-0.3c0-0.2,0.2-0.3,0.7-0.4c1.7-0.2,3.7-0.3,4.7-0.4c1-0.1,3.3-0.4,5.2-0.6c4-0.4,9.5-0.8,13.2,2.6
							c1.7,1.5,3.3,4.1,3.5,8c0.2,4-1.3,7.2-3,9.2c-1.3,1.6-4.5,4.1-10.3,4.6c-1.1,0.1-2.5,0.1-3.8,0.1c-1.2,0-2.4,0-3.2,0.1
							c-0.4,0-1,0.1-1.8,0.2c-0.7,0.1-1.5,0.2-2.2,0.3c-0.4,0-0.6,0-0.6-0.3c0-0.2,0.1-0.4,0.5-0.4c0.5,0,0.8-0.1,1.1-0.2
							c0.6-0.2,0.8-0.8,0.8-1.8c0-1.4-0.2-3.9-0.4-6.8C70.7,71.3,70.6,70.1,70.5,67.9z M75,71c0.3,3.4,0.5,5.8,0.6,6.5
							c0.1,0.8,0.3,1.9,0.5,2.2c0.4,0.5,1.7,1.1,4.2,0.9c2.9-0.3,4.9-1,6.7-2.8c1.9-1.9,2.4-4.8,2.2-8.2c-0.2-4.1-2-6.6-3.5-7.8
							c-3.1-2.5-6.7-2.5-9.2-2.3c-0.7,0.1-1.7,0.3-2,0.4c-0.2,0.2-0.4,0.3-0.4,0.7c0.1,1.1,0.2,3.7,0.4,6.3
							C74.8,68.6,74.9,69.4,75,71z"/>
						<path class="st1" d="M94.7,68.7c-0.3-5.5,3.1-12.9,12.9-13.3c8.2-0.4,13.3,4.2,13.5,11.6c0.1,7.4-4.8,13.2-12.9,13.6
							C99.1,81,95,74.4,94.7,68.7z M116.4,68.3c-0.2-7.1-4.4-11.4-9.6-11.1c-3.6,0.2-7.7,2.4-7.4,10.3c0.3,6.6,4.1,11.6,10,11.4
							C111.7,78.7,116.6,77.4,116.4,68.3z"/>
						<path class="st1" d="M124.5,64.6c-0.1-4.9-0.1-5.8-0.1-6.8c-0.1-1.1-0.4-1.4-1.4-1.7c-0.3-0.1-0.8-0.1-1.3-0.1
							c-0.3,0-0.6-0.1-0.6-0.3c0-0.2,0.3-0.3,0.7-0.3c1.7,0,3.7,0,4.4,0c1.6,0,3.8-0.1,4.9-0.1c5.9,0,6.9,3.1,6.9,4.8
							c0,2.5-3.6,5.6-3.6,5.6c0,0.3,5.9,3.2,5.9,7c0,3.4-2.6,7-8.4,7c-0.4,0-1.4,0-2.5-0.1c-1.1,0-2.2,0-2.7,0c-0.4,0-1.1,0-1.8,0.1
							c-0.7,0-1.5,0.1-2.2,0.1c-0.4,0-0.6-0.1-0.6-0.3c0-0.2,0.1-0.3,0.5-0.4c0.5,0,0.8-0.1,1.1-0.1c0.6-0.2,0.8-0.8,0.9-1.7
							c0.1-1.4,0.1-3.9,0-6.8C124.6,68,124.5,66.9,124.5,64.6z M128.7,65.1c0,0.3,0.1,0.3,0.2,0.3c0.3,0.1,0.8,0.1,1.5,0.1
							c1.1,0,2-0.1,2.5-0.6c0.8-0.7,1.5-1.9,1.4-3.4c0-2.2-1.3-4.9-4.1-4.8c-0.4,0-1.1,0-1.4,0.1c-0.2,0-0.3,0.2-0.3,0.5
							C128.6,60.5,128.6,62,128.7,65.1z M128.7,74.6c0,2.1,0.1,2.8,1.1,3.2c0.8,0.3,1.5,0.4,2.3,0.4c1.7,0,3.9-1,3.9-4.6
							c0-1.5-0.7-4-3-5.7c-0.7-0.5-1.5-0.8-2.8-0.8c-0.6,0-0.8,0-1.4,0c-0.1,0-0.2,0-0.2,0.2C128.7,70.2,128.7,71.6,128.7,74.6z"/>
						<path class="st1" d="M141.7,67.4c0-5.5,3.8-12.6,13.7-12.4c8.2,0.2,13.1,5.2,12.8,12.5c-0.3,7.4-5.6,12.9-13.7,12.7
							C145.4,80,141.7,73.1,141.7,67.4z M163.4,68.5c0.2-7.1-3.8-11.7-9-11.8c-3.6-0.1-7.8,1.8-7.9,9.7c-0.1,6.6,3.4,11.9,9.4,12.1
							C158,78.6,163.1,77.7,163.4,68.5z"/>
						<path class="st1" d="M170.4,80c-0.5-0.3-0.6-0.4-0.6-1.1c0.1-1.7,0.3-3.8,0.4-4.3c0-0.5,0.2-0.8,0.4-0.8
							c0.3,0,0.3,0.3,0.3,0.5c0,0.4,0.1,1.1,0.2,1.7c0.6,2.4,2.9,3.3,4.9,3.5c2.7,0.2,4.5-1.5,4.6-3.8c0.1-1.4-0.2-2.8-2.9-4.7
							c-0.7-0.5-1.1-0.7-1.8-1.3c-3.6-2.5-4.8-4.7-4.7-7.6c0.2-3.9,3.9-6.3,8.4-6c2.1,0.1,3.7,0.6,4.6,0.8c0.3,0.1,0.4,0.2,0.4,0.4
							c0,0.4-0.2,1.3-0.3,3.8c0,0.7-0.2,1-0.5,1c-0.2,0-0.3-0.2-0.3-0.6c0-0.3-0.1-1.3-0.7-2.2c-0.4-0.6-1.4-1.6-3.5-1.8
							c-2.3-0.1-4.5,1-4.6,3.2c-0.1,1.4,0.4,2.6,3.2,4.4c0.5,0.3,0.8,0.5,1.3,0.8c4.1,2.7,5.2,5.3,5.1,8.2c-0.1,2.4-1.1,4.2-3.5,5.8
							c-1.6,1-3.6,1.1-5.3,1C173.7,81,171.7,80.7,170.4,80z"/>
						<path class="st1" d="M198.6,80.5c3.2,0.3,4.4-0.2,5-1.2c0.3-0.5,0.6-1,0.7-1.4c0.1-0.3,0.2-0.5,0.4-0.5c0.3,0,0.3,0.3,0.2,1
							c-0.1,1.1-0.6,3.1-0.9,3.9c-0.2,0.5-0.5,0.8-1,0.7c-5.2-0.5-10.5-1.2-16.9-1.7c-0.4,0-0.5-0.2-0.5-0.4c0-0.2,0.1-0.4,0.4-0.9
							c4.9-6.7,10-13.6,14.8-19.7c-2.4-0.2-3.6-0.3-6.1-0.6c-1.6-0.1-3.6-0.3-4.6,0.2c-1.1,0.5-1.7,1.6-1.9,2.3
							c-0.1,0.4-0.3,0.5-0.4,0.5c-0.2,0-0.3-0.2-0.3-0.6c0-0.8,0.8-3.7,0.9-4.6c0.1-0.4,0.2-0.6,0.4-0.6c0.3,0,0.5,0.2,1.3,0.3
							c3.1,0.4,4.6,0.5,5.9,0.6c4,0.4,6,0.6,9.9,1c0.3,0,0.5,0.2,0.5,0.3c0,0.3-0.1,0.4-0.2,0.6c-4.5,6.6-10.4,13.6-15.3,20
							C194,80.1,195.5,80.2,198.6,80.5z"/>
					</g>
				</g>
				<path class="st1" d="M217.5,91.9c0,0-40.7-3.6-82.4-3.6c-41.7,0-82.3,3.6-82.3,3.6s40.6-6.1,82.3-6.1
					C176.6,85.7,217.5,91.9,217.5,91.9z"/>
			</g>
		</g>
	</g>
</g>
</svg>
