<svg version="1.1" id="logo" xmlns="http://www.w3.org/2000/svg" xmlns:xlink="http://www.w3.org/1999/xlink" x="0px" y="0px"
	 viewBox="0 0 275.4 309.3" style="enable-background:new 0 0 275.4 309.3;" xml:space="preserve">
<style type="text/css">
	#logo .st0{fill:#DBD4CE;}
	#logo .st1{fill:#4D4D4D;}
	#logo .st2{fill:#C2986D;}
</style>
<g>
	<g>
		<path class="st0" d="M275.4,309.3c0,0-68.9-15.9-141.7-15.9C58.8,293.4,0,309.3,0,309.3V0h275.4V309.3z"/>
		<g>
			<g>
				<g>
					<g>
						<path class="st1" d="M70.5,177.5c-0.4-4.9-0.5-5.8-0.6-6.8c-0.1-1.1-0.5-1.4-1.5-1.6c-0.3,0-0.8,0-1.3,0
							c-0.3,0-0.6-0.1-0.6-0.3c0-0.2,0.2-0.3,0.7-0.4c1.7-0.2,3.7-0.3,4.7-0.4c1-0.1,3.3-0.4,5.2-0.6c4-0.4,9.5-0.8,13.2,2.6
							c1.7,1.5,3.3,4.1,3.5,8c0.2,4-1.3,7.2-3,9.2c-1.3,1.6-4.5,4.1-10.3,4.6c-1.1,0.1-2.5,0.1-3.8,0.1c-1.2,0-2.4,0-3.2,0.1
							c-0.4,0-1,0.1-1.8,0.2c-0.7,0.1-1.5,0.2-2.2,0.3c-0.4,0-0.6,0-0.6-0.3c0-0.2,0.1-0.4,0.5-0.4c0.5,0,0.8-0.1,1.1-0.2
							c0.6-0.2,0.8-0.8,0.8-1.8c0-1.4-0.2-3.9-0.4-6.8C70.7,180.9,70.6,179.7,70.5,177.5z M75,180.6c0.3,3.4,0.5,5.8,0.6,6.5
							c0.1,0.8,0.3,1.9,0.5,2.2c0.4,0.5,1.7,1.1,4.2,0.9c2.9-0.3,4.9-1,6.7-2.8c1.9-1.9,2.4-4.8,2.2-8.2c-0.2-4.1-2-6.6-3.5-7.8
							c-3.1-2.5-6.7-2.5-9.2-2.3c-0.7,0.1-1.7,0.3-2,0.4c-0.2,0.2-0.4,0.3-0.4,0.7c0.1,1.1,0.2,3.7,0.4,6.3
							C74.8,178.2,74.9,179,75,180.6z"/>
						<path class="st1" d="M94.7,178.3c-0.3-5.5,3.1-12.9,12.9-13.3c8.2-0.4,13.3,4.2,13.5,11.6c0.1,7.4-4.8,13.2-12.9,13.6
							C99.1,190.6,95,184,94.7,178.3z M116.4,177.9c-0.2-7.1-4.4-11.4-9.6-11.1c-3.6,0.2-7.7,2.4-7.4,10.3c0.3,6.6,4.1,11.6,10,11.4
							C111.7,188.3,116.6,187,116.4,177.9z"/>
						<path class="st1" d="M124.5,174.2c-0.1-4.9-0.1-5.8-0.1-6.8c-0.1-1.1-0.4-1.4-1.4-1.7c-0.3-0.1-0.8-0.1-1.3-0.1
							c-0.3,0-0.6-0.1-0.6-0.3c0-0.2,0.3-0.3,0.7-0.3c1.7,0,3.7,0,4.4,0c1.6,0,3.8-0.1,4.9-0.1c5.9,0,6.9,3.1,6.9,4.8
							c0,2.5-3.6,5.6-3.6,5.6c0,0.3,5.9,3.2,5.9,7c0,3.4-2.6,7-8.4,7c-0.4,0-1.4,0-2.5-0.1c-1.1,0-2.2,0-2.7,0c-0.4,0-1.1,0-1.8,0.1
							c-0.7,0-1.5,0.1-2.2,0.1c-0.4,0-0.6-0.1-0.6-0.3c0-0.2,0.1-0.3,0.5-0.4c0.5,0,0.8-0.1,1.1-0.1c0.6-0.2,0.8-0.8,0.9-1.7
							c0.1-1.4,0.1-3.9,0-6.8C124.6,177.6,124.5,176.5,124.5,174.2z M128.7,174.7c0,0.3,0.1,0.3,0.2,0.3c0.3,0.1,0.8,0.1,1.5,0.1
							c1.1,0,2-0.1,2.5-0.6c0.8-0.7,1.5-1.9,1.4-3.4c0-2.2-1.3-4.9-4.1-4.8c-0.4,0-1.1,0-1.4,0.1c-0.2,0-0.3,0.2-0.3,0.5
							C128.6,170,128.6,171.6,128.7,174.7z M128.7,184.1c0,2.1,0.1,2.8,1.1,3.2c0.8,0.3,1.5,0.4,2.3,0.4c1.7,0,3.9-1,3.9-4.6
							c0-1.5-0.7-4-3-5.7c-0.7-0.5-1.5-0.8-2.8-0.8c-0.6,0-0.8,0-1.4,0c-0.1,0-0.2,0-0.2,0.2C128.7,179.8,128.7,181.2,128.7,184.1z"
							/>
						<path class="st1" d="M141.7,177c0-5.5,3.8-12.6,13.7-12.4c8.2,0.2,13.1,5.2,12.8,12.5c-0.3,7.4-5.6,12.9-13.7,12.7
							C145.4,189.5,141.7,182.7,141.7,177z M163.4,178.1c0.2-7.1-3.8-11.7-9-11.8c-3.6-0.1-7.8,1.8-7.9,9.7
							c-0.1,6.6,3.4,11.9,9.4,12.1C158,188.2,163.1,187.3,163.4,178.1z"/>
						<path class="st1" d="M170.4,189.6c-0.5-0.3-0.6-0.4-0.6-1.1c0.1-1.7,0.3-3.8,0.4-4.3c0-0.5,0.2-0.8,0.4-0.8
							c0.3,0,0.3,0.3,0.3,0.5c0,0.4,0.1,1.1,0.2,1.7c0.6,2.4,2.9,3.3,4.9,3.5c2.7,0.2,4.5-1.5,4.6-3.8c0.1-1.4-0.2-2.8-2.9-4.7
							c-0.7-0.5-1.1-0.7-1.8-1.3c-3.6-2.5-4.8-4.7-4.7-7.6c0.2-3.9,3.9-6.3,8.4-6c2.1,0.1,3.7,0.6,4.6,0.8c0.3,0.1,0.4,0.2,0.4,0.4
							c0,0.4-0.2,1.3-0.3,3.8c0,0.7-0.2,1-0.5,1c-0.2,0-0.3-0.2-0.3-0.6c0-0.3-0.1-1.3-0.7-2.2c-0.4-0.6-1.4-1.6-3.5-1.8
							c-2.3-0.1-4.5,1-4.6,3.2c-0.1,1.4,0.4,2.6,3.2,4.4c0.5,0.3,0.8,0.5,1.3,0.8c4.1,2.7,5.2,5.3,5.1,8.2c-0.1,2.4-1.1,4.2-3.5,5.8
							c-1.6,1-3.6,1.1-5.3,1C173.7,190.6,171.7,190.3,170.4,189.6z"/>
						<path class="st1" d="M198.6,190.1c3.2,0.3,4.4-0.2,5-1.2c0.3-0.5,0.6-1,0.7-1.4c0.1-0.3,0.2-0.5,0.4-0.5c0.3,0,0.3,0.3,0.2,1
							c-0.1,1.1-0.6,3.1-0.9,3.9c-0.2,0.5-0.5,0.8-1,0.7c-5.2-0.5-10.5-1.2-16.9-1.7c-0.4,0-0.5-0.2-0.5-0.4c0-0.2,0.1-0.4,0.4-0.9
							c4.9-6.7,10-13.6,14.8-19.7c-2.4-0.2-3.6-0.3-6.1-0.6c-1.6-0.1-3.6-0.3-4.6,0.2c-1.1,0.5-1.7,1.6-1.9,2.3
							c-0.1,0.4-0.3,0.5-0.4,0.5c-0.2,0-0.3-0.2-0.3-0.6c0-0.8,0.8-3.7,0.9-4.6c0.1-0.4,0.2-0.6,0.4-0.6c0.3,0,0.5,0.2,1.3,0.3
							c3.1,0.4,4.6,0.5,5.9,0.6c4,0.4,6,0.6,9.9,1c0.3,0,0.5,0.2,0.5,0.3c0,0.3-0.1,0.4-0.2,0.6c-4.5,6.6-10.4,13.6-15.3,20
							C194,189.7,195.5,189.8,198.6,190.1z"/>
					</g>
				</g>
				<path class="st1" d="M217.5,201.4c0,0-40.7-3.6-82.4-3.6c-41.7,0-82.3,3.6-82.3,3.6s40.6-6.1,82.3-6.1
					C176.6,195.3,217.5,201.4,217.5,201.4z"/>
				<g>
					<path class="st1" d="M144,155.9l0.8-1.1l0.7,0.8l2,0.1c0,0-0.2,0.2-1,0.9c-1.1,1-2.1,0.3-2.1,0.3l-0.7-0.7L144,155.9z"/>
				</g>
				<g>
					<path class="st1" d="M130.9,112.3c-0.2-0.2-0.5-0.3-0.8-0.3c-0.5,0-1,0.1-1,0.4c0,0.3,0.4,0.5,1,0.5c0.4,0,0.7-0.1,0.9-0.2
						c0,0,0,0,0,0l11.9,1.3c0.1,0.6,1,1.6,1.4,1.9l1.3-0.4c0.8-0.1,1.3-0.3,1.5-0.8c0-0.2,0.3-0.9,0.6-1.7c0.3,0.1,0.5,0.2,0.5,0.2
						s2.5-3.1,2.1-3.5c-0.7-0.8-3.6-2-4.5-2.3c-0.4-0.1-1.3,2.8-1.4,3.4c0,0.1,0.1,0.3,0.4,0.6l-1.2,0.7c-0.4,0.4-0.6,0.5-1.4,0.8
						c0,0,0,0.1,0,0.1C139.4,112.5,133.3,112.3,130.9,112.3z M145,114C145,114.1,145,114.1,145,114c-0.3,0.1-0.6,0.4-0.9,0.3
						c-0.1,0-0.3-0.2-0.6-0.2L145,114z M125.8,81l-0.3,0.7l1-0.6l-0.2,0.7c0.4-0.4,0.7-1.1,1.3-1.2l0,1.2l0.7-1.1
						c-0.2-0.6-0.3-1.1,0-1.5l-1.5-0.7c-0.4,0.8-1,1.2-1.7,1.5h0.6l-1.1,1.5L125.8,81z M128,76.2c0.6-0.1,1.1-0.9,0.8-1.6
						c0.4-0.9,0.2-1.7-0.3-2.6c0.1,1-0.1,1.9-0.7,2.4C126.9,75.1,127.5,76.1,128,76.2z M134.1,77c-0.2-0.5-0.6-0.7-0.9-0.6
						c-0.3,0.1-0.4,0.6-0.3,1.1c0.2,0.5,0.6,0.7,0.9,0.6C134.2,77.9,134.3,77.4,134.1,77z M127.4,78.4l0.2-0.2
						c0.1-0.3,0.1-0.7-0.1-1.1c0-0.3,0-0.3,0.3-0.1c0.2,0.2,0.3,0.5,0.3,0.7l0.1,0.4l0.3-0.1c0.1-0.2,0.1-0.4,0-0.7
						c-0.2-0.3-0.4-0.6-0.8-0.8c-0.3-0.1-0.4,0-0.5,0.2c-0.1,0.4-0.3,1-0.2,1.3L127.4,78.4z M142.4,74.1c-0.2-0.4-5.5,1.4-5.5,1.4
						s1.6,0.1,2.6,0.2c2.8,0.2,3.6-0.6,3.6-0.6S142.6,74.4,142.4,74.1z M140.5,82.2c-0.2,0.4,0.1,1.5,0.1,1.5s1-0.6,1.6-2.6
						c0.2-0.6,0.2-2.7,0.2-3.5c-0.3,0.1-0.4,0.4-1.3,0.2c0,0.5,0.2,1.1,0.3,1.5c0.3,1,0.3,1.2-0.6,1.2c-0.4,0-0.6,0-0.6,0
						s-0.1,0.6,0,0.9c0,0.2,0,0.3,0.1,0.3c0.3,0.1,1-0.1,1-0.1S141.2,82.2,140.5,82.2z M139.5,77.4c0.2,0,0.2-0.2,0.1-0.2
						c0,0,0-0.1-0.1-0.1c-0.2,0-0.3,0-0.5,0.1c-0.6,0.1-1.3,0.2-1.9,0.3c-0.2,0.1-0.1,0.3,0.1,0.2c0,0,0.1,0,0.1,0
						c0,0,0.1,0.1,0.1,0.1c0.1,0,0.2,0,0.3,0c0.5,0.4,1.3,0.7,1.9-0.1c0.1-0.1-0.1-0.1-0.2,0c0,0,0.1-0.1,0.1-0.2
						C139.5,77.4,139.5,77.4,139.5,77.4z M143.5,84.6C143.5,84.7,143.5,84.7,143.5,84.6c-0.1,0.6-0.1,1.2-0.7,2
						c-0.1,0.2-0.5,0.4-0.5,0.7c0.2,0.3,2.8,4.2,1.5,8.2c0.3,0,0.8-0.3,1.2-0.2c2.7,0.6-2.1,12.5-2.1,12.5c2.4-3,4.1-6.6,4.8-10.2
						c0,1.5-0.1,2.7-0.1,3c-0.1,0.8-1.3,5.7-1.3,5.7l3.8,1.7c0,0,0.8-1.4,2.3-5c0.9-2.1,1.1-2.9,1.4-4.1c0.8-3.1-4.9-14.1-5.9-15.2
						c-1.7-1.8-3.2-2.1-4.7-1.7C143.3,82.2,143.6,83.9,143.5,84.6z M138.3,135.8c-0.1-2.4-1.5-6-2.6-7.8c-1-1.6-3.9-4.4-6.1-6.5
						c-1.3-1.3-1.9-3-2.1-4.6l6.8,0.9c0.1,0,0.1,0,0.2,0c0.2,0.1,0.4,0.2,0.6,0.2c0.5,0.1,1,0,1.1-0.3c0-0.3-0.4-0.5-0.9-0.6
						c-0.5-0.1-0.9,0-1,0.2c-1.5-0.4-4.3-1-6.9-1.5c-0.1-1.4,0.1-2.3,0.1-2.3c-0.3,0.8-0.5,1.5-0.5,2.3c-0.4-0.1-0.8-0.1-1.2-0.2
						c4.7-12,11.2-5.8,11.5-5.6c0-0.1,0.1-0.3,0.1-0.6c-0.2-0.8-0.5-4.2-0.6-5.5c-0.2-1.7-0.2-4.5-0.2-5.4c0.1-0.9-0.2-2.3,1-3.3
						c0.3-0.3,1.4,0.1,1.9,0.3c0,0,0.2-2.4-0.6-4.9c-0.2-0.5-0.3-0.9-1-1.9c-1.3-1.5-3-3.6-3.8-4.8c-0.6-0.9-1.3-2.8-1.3-3.9
						c0,0.5-0.2,1.2-0.3,1.7c-0.3,1.5-2.6,2.6-2.6,2.6c2.6,0.5,2.7,3.3,2.7,3.8c0-0.1-1.1-3.2-4.2-2.8c-0.8,0.1-1.6,0.3-2,0.7
						c-0.7,0.4-1.1,0.9-1.1,0.9c-2.6,2.5-5.3,8.8-6,11.7c-0.7,2.9-1.8,6.9-1.8,6.9l3.4,1.8c0,0,2.9-6.3,4.4-8.8
						c0.4-0.6,1-1.5,1.6-2.3c0.7,2.3,1.5,5.2,1.2,6.6c-0.5,2.4-0.7,2.3-2.7,6c-0.8,1.4-1.2,4.1-1.6,6.2c-0.2,0-0.4,0-0.6-0.1
						c0.1-0.1,0.1-0.2,0.1-0.3c-0.7-0.3-0.8-0.5-1.2-1.1l-1.8-1.6c0.2,0,0.4-0.1,0.5-0.1c0.6-0.3,0.9-3.1,0.5-3.2
						c-1.1-0.3-4.5-3-4.5-2.2c0,0.8-0.6,4.1-0.2,5.2c0,0.1,0.2,0.2,0.4,0.2c0,0.9,0.7,2.7,0.6,3c0.1,0.5,0.9,1.3,1.6,1.5l1.2,0.7
						c0.5-0.1,1.4-0.8,1.7-1.3l1.3,0.2c-0.1,0.4-0.2,0.7-0.3,1c-0.7,1.9-2.2,3.3-2.2,3.3s2.6-1.4,3.5-2.9c0,0,0.3-0.6,0.5-1.1
						l1.6,0.2c0,5.6,6.1,8.8,9.3,15.1c0.9,1.7,0.2,7.5,0.2,8.1c0,0.6,1.5,4,1.7,4.8c0.5-0.2,1.5-1.7,1.7-2.1
						C139,141.3,138.4,137.6,138.3,135.8z M121.1,115.9c-0.2,0-0.4-0.1-0.6-0.3l0.8,0.2C121.2,115.9,121.1,115.9,121.1,115.9z
						 M120.9,115c0.3-0.1,0.7-0.1,1.1,0.1c0.2,0.1,0.4,0.1,0.6,0.1C122.1,115.3,121.4,115.2,120.9,115z M149.8,146.4
						c1.5-1.1,2.5-0.3,2.5-0.3s-0.2-0.6-1.9-0.6c-0.9,0-1.7,0.5-2.6,1.9c-0.9,1.3-2.3,2.5-3.2,2.8c-0.9,0.3-1.8-0.9-1.8-0.9
						s1,0.2,2.1-0.2c1.1-0.3,0.8-0.7,0.8-0.7l-0.2-0.9l0.3-4.6c0,0-1.4-2.6-2.5-2.3c-1.2,0.3-4.7,5.8-4.7,5.8s0.7,2.8,1.5,4.2
						c0.8,1.4,1.2,2.4,1.5,1.9c0.8-1.3,0.7-2.2,0.7-2.2s0.5,1.5,0.1,3.2c-0.1,0.7,0.9,2,0.9,2s1.4-1.4,2.1-2.7
						C146,151.5,148.5,147.4,149.8,146.4z M151.6,146.3c-0.8,0-1.7,0.7-2.7,1.9c-1,1.2-3.6,5.9-3.6,5.9l2.9,0.8c0,0,0-0.2,1.2-2.1
						c0.5-0.8,2.8-3.1,3.3-4.3C153.2,147.3,152.4,146.3,151.6,146.3z M130.6,132.8c0.3-1.2,0.2-5.7,0.1-6.1c-0.1-0.4-1,5.5-1.6,6.5
						c-0.7,1-3.2,5-3.2,5s1.4,0.7,1.8,0.5C129.3,138,130.3,134,130.6,132.8z M131.7,151.4c-1.9-1.1-2.9-2.4-2.9-2.4s0.7-1.3-1-1.3
						c-1.7,0.1-2.4,1.2-2.4,1.2s0.1-1.2,1.3-1.7c1.5-0.6,2.8-0.8,2.8-0.8s1.7-3.8,2.5-6c0.2-0.6-1.2,0.3-2.2,0.3
						c-2.6,0.1-4.7-1-4.7-1s-1.8,3.6-1.9,5.1c-0.1,1.5,0.2,1.7,0.2,1.7l0,1c0,0-1-1-1.5,1.8c-0.3,1.3-0.2,2.8-0.2,2.8l3.1,1.3
						c0,0,0.9-0.8,2.1-0.7c1.1,0.2,1.9,1.6,2.5,1.8c0.6,0.2,3,0.3,4.1,0.2c1.1,0,2-0.8,1.6-1.4C134.8,153,133.6,152.5,131.7,151.4z
						 M156.4,130.1L156.4,130.1l0-0.1c0,0,0,0,0-0.1l0,0v0l0-0.1c0,0,0,0,0,0l0,0c0,0,0,0,0-0.1c0,0,0,0,0,0c0,0,0,0,0,0
						c0,0,0-0.1,0-0.1c0,0,0-0.1-0.1-0.1c0,0,0,0,0,0l-0.1-0.1l-0.1-0.1c0,0,0,0,0,0l0,0c0.1,0.1,0.1,0.2,0.1,0.3l0,0
						c0,0.1,0,0.3,0,0.4c0,0.1-0.1,0.2-0.1,0.3c0,0,0,0.1,0,0.1c0,0.1-0.1,0.2-0.1,0.2c0,0.1-0.1,0.1-0.1,0.2c0,0,0,0.1-0.1,0.1
						c0,0-0.1,0.1-0.1,0.1c0,0.1-0.1,0.1-0.1,0.2c0,0-0.1,0.1-0.1,0.1c-0.1,0.1-0.1,0.1-0.2,0.2c0,0.1-0.1,0.1-0.1,0.2
						c-0.1,0.2-0.3,0.3-0.4,0.5c0,0,0,0,0,0c-0.2,0.2-0.4,0.4-0.6,0.5c0,0-0.1,0.1-0.1,0.1c-0.2,0.1-0.3,0.3-0.5,0.4
						c0,0-0.1,0.1-0.1,0.1c-0.2,0.2-0.4,0.3-0.6,0.5c0,0,0,0,0,0c0,0,0,0,0,0c-0.2,0.1-0.3,0.2-0.5,0.4c-0.1,0.1-0.3,0.2-0.4,0.3
						c-0.1,0.1-0.3,0.2-0.4,0.3c0,0-0.1,0-0.1,0.1c-0.1,0.1-0.2,0.2-0.4,0.2c0,0,0,0,0,0c-0.2,0.1-0.4,0.2-0.6,0.3c0,0,0,0,0,0
						c-0.1,0-0.1,0.1-0.2,0.1c-0.1,0.1-0.3,0.1-0.4,0.2c0,0-0.1,0-0.1,0c-0.1,0.1-0.2,0.1-0.3,0.2c-0.1,0.1-0.2,0.1-0.3,0.2
						c0,0-0.1,0-0.1,0c-0.4,0.2-0.7,0.3-1,0.4c0,0-0.1,0-0.1,0.1c-0.3,0.1-0.7,0.2-1,0.3c0,0,0,0,0,0c-0.3,0.1-0.5,0.1-0.7,0.2
						c-0.1,0-0.1,0-0.2,0c-0.3,0.1-0.7,0.1-0.9,0.2c-0.1,0-0.1,0-0.2,0c-0.2,0-0.4,0-0.6,0c-0.1,0-0.1,0-0.2,0
						c-0.2,0-0.3-0.1-0.4-0.1c0,0-0.1,0-0.1-0.1c-0.1-0.1-0.3-0.2-0.3-0.3l0.1,0.2c0.1,0.1,0.1,0.2,0.3,0.4c0,0,0.1,0,0.1,0.1l0,0
						c0,0,0,0,0,0l0.1,0c0.1,0.1,0.1,0.1,0.2,0.1c0,0,0,0,0,0c0,0,0,0,0,0c0,0,0.1,0,0.2,0.1l0.2,0.1c0.1,0,0.2,0,0.3,0
						c0,0,0,0,0.1,0c0,0,0,0,0.1,0l0.3,0c0.1,0,0.3,0,0.5,0l0,0h0c0,0,0.1,0,0.1,0c0,0,0,0,0,0l0.2,0c0.1,0,0.3-0.1,0.5-0.1l0.4-0.1
						c0.1,0,0.3-0.1,0.5-0.1l0.4-0.1c0.1,0,0.3-0.1,0.5-0.2l0.5-0.2c0.1-0.1,0.3-0.1,0.5-0.2l0.5-0.2c0.1-0.1,0.3-0.2,0.5-0.2l0.1,0
						c0,0,0,0,0,0l0.3-0.2c0.1-0.1,0.3-0.2,0.5-0.3l0.3-0.2c0,0,0,0,0,0c0,0,0,0,0,0l0.2-0.1c0.1-0.1,0.3-0.2,0.5-0.3l0.4-0.3
						c0,0,0,0,0,0c0.1-0.1,0.2-0.1,0.3-0.2c0,0,0.1-0.1,0.1-0.1l0,0c0,0,0.1-0.1,0.1-0.1l0,0c0.1,0,0.1-0.1,0.2-0.1l0,0
						c0,0,0,0,0.1-0.1c0,0,0.1-0.1,0.1-0.1c0.1-0.1,0.2-0.1,0.2-0.2l0,0c0.1-0.1,0.1-0.1,0.2-0.2l0.1-0.1c0,0,0.1-0.1,0.1-0.1l0,0
						c0.1-0.1,0.2-0.2,0.3-0.2l0.3-0.2c0.1-0.1,0.2-0.2,0.2-0.2c0,0,0,0,0.1-0.1c0,0,0,0,0,0l0,0c0,0,0.1-0.1,0.1-0.1l0.1-0.1
						l0.1-0.1c0,0,0,0,0,0c0.1-0.1,0.1-0.1,0.2-0.2c0,0,0,0,0,0c0,0,0-0.1,0.1-0.1l0,0c0.1-0.1,0.1-0.2,0.2-0.3c0,0,0,0,0,0
						c0.1-0.1,0.1-0.2,0.2-0.3c0,0,0,0,0-0.1l0,0c0,0,0-0.1,0.1-0.1l0.1-0.1l0,0c0,0,0,0,0,0c0.1-0.1,0.1-0.2,0.2-0.4l0.1-0.2l0-0.2
						L156.4,130.1L156.4,130.1L156.4,130.1C156.4,130.2,156.4,130.2,156.4,130.1L156.4,130.1C156.4,130.2,156.4,130.2,156.4,130.1z
						 M144.9,137.5c0,0-0.1,0-0.1,0C144.8,137.5,144.8,137.5,144.9,137.5C144.9,137.5,144.9,137.5,144.9,137.5z M152.6,134.2
						c-0.1,0-0.1,0.1-0.2,0.1c0,0,0,0-0.1,0C152.4,134.3,152.5,134.2,152.6,134.2C152.6,134.2,152.6,134.2,152.6,134.2z
						 M154.2,132.9C154.2,132.9,154.2,132.9,154.2,132.9C154.2,132.9,154.2,132.9,154.2,132.9C154.2,132.9,154.2,132.9,154.2,132.9z
						 M154.8,132.4C154.8,132.4,154.7,132.4,154.8,132.4L154.8,132.4c-0.2,0.2-0.3,0.3-0.4,0.4c0.3-0.2,0.5-0.5,0.7-0.7
						C154.9,132.2,154.9,132.3,154.8,132.4z M137.9,127.1l2.8,4.8c0.6,0.7,0.9,1.1,1.7,1.8c0-0.6,0-1,0-1.7l-2.8-4.8c0,0,0,0,0,0
						C138.8,127.4,138.3,127.3,137.9,127.1C137.9,127.1,137.9,127.1,137.9,127.1C137.9,127.1,137.9,127.1,137.9,127.1z M153.7,127.2
						c-0.2-0.9-0.4-1.5-0.7-2.4l-2.7-4.8v0c0,0,0,0.1,0,0.1c0,0,0,0.1,0,0.1c0,0,0,0,0,0c0,0.1,0,0.1-0.1,0.2c0,0.1,0,0.1-0.1,0.2
						c0,0.1-0.1,0.1-0.1,0.2c0,0.1-0.1,0.1-0.1,0.2c0,0.1-0.1,0.1-0.1,0.2c-0.1,0.1-0.1,0.2-0.2,0.3c-0.1,0.1-0.1,0.2-0.2,0.3
						c0,0,0,0,0.1-0.1c0,0,0,0,0,0l2.7,4.8C152.8,126.7,153.1,126.9,153.7,127.2z M143,136.4c0,0,0.3,0.1,0.8,0.1l-1.4-2.5l0.1,0.1
						c-0.2-0.2-0.4-0.4-0.5-0.5c-0.3-0.1-0.6-0.2-0.7-0.4l1.1,1.9C142.3,135.1,142.8,136.1,143,136.4z M141.2,133.2L141.2,133.2
						L141.2,133.2C141.2,133.2,141.2,133.2,141.2,133.2z M148.7,131.6c0.2-1,0.3-1.5,0.4-2.5l-2.7-4.8c0.1,0,0.1-0.1,0.2-0.1
						c-0.1,0-0.1,0.1-0.2,0.1c-0.1,0.1-0.3,0.2-0.4,0.3c-0.1,0.1-0.3,0.2-0.4,0.2c-0.1,0.1-0.2,0.1-0.4,0.2
						c-0.1,0.1-0.2,0.1-0.3,0.2c-0.1,0.1-0.2,0.1-0.3,0.2c-0.1,0.1-0.2,0.1-0.3,0.2c-0.1,0.1-0.2,0.1-0.3,0.2
						c-0.1,0-0.2,0.1-0.3,0.2c-0.1,0-0.2,0.1-0.2,0.1c0,0,0.1,0,0.1,0c0,0,0,0,0.1,0l2.8,4.8C147.1,131,147.6,131.2,148.7,131.6z
						 M142.6,126.4c-0.1,0-0.2,0.1-0.3,0.1c-0.1,0-0.2,0.1-0.3,0.1c-0.1,0-0.2,0.1-0.4,0.1c-0.1,0-0.3,0.1-0.4,0.1
						c-0.1,0-0.3,0.1-0.4,0.1c-0.2,0.1-0.4,0.1-0.5,0.1c-0.1,0-0.1,0-0.2,0c0,0,0,0,0,0c0,0,0,0,0,0l2.8,4.8
						c0.8,0.5,1.3,0.8,2.2,1.3c0.2-0.8,0.2-1.2,0.5-2.2l-2.7-4.8c0,0,0.1,0,0.1,0C142.8,126.3,142.7,126.3,142.6,126.4z
						 M151.8,129.4c0-1,0-1.6,0-2.6L149,122c-0.1,0.1-0.2,0.2-0.3,0.3c-0.4,0.4-0.8,0.7-1.2,1.1c-0.2,0.2-0.4,0.3-0.7,0.5
						c0,0,0,0,0,0c0,0,0,0,0,0l2.8,4.7C150.5,128.9,151.1,129.1,151.8,129.4z M149,122L149,122C149,122,149,122,149,122
						C149,122,149,122,149,122z M153.8,131.8l1.2-1.4c0-0.1,0.1-0.1,0.1-0.2c0,0,0,0,0,0l-1.4-2.4c-0.1-0.1-0.3-0.2-0.4-0.2
						c-0.3,0.4-0.6,0.8-1.1,1.3c0,0.2,0,0.5,0,0.8l1.4,2.4C153.7,131.9,153.8,131.9,153.8,131.8z M151.8,130
						c-0.2-0.1-0.4-0.2-0.6-0.2c-0.6,0.4-1.2,0.9-1.8,1.3c0,0.2-0.1,0.5-0.1,0.7l1.4,2.4c0.1,0,0.2-0.1,0.3-0.2c0,0,0,0,0,0l2-1.4
						c0.1-0.1,0.2-0.2,0.3-0.2l-1.4-2.5L151.8,130z M153.2,132.4L153.2,132.4C153.3,132.3,153.3,132.3,153.2,132.4z M153.8,126.6
						c0,0.1,0,0.1-0.1,0.2c0.1,0.2,0.1,0.5,0.2,0.7l1.4,2.4c0,0,0,0,0,0c0,0,0-0.1,0.1-0.1l0.2-0.5c0-0.1-0.7-1.3-0.8-1.5l-1-1.8
						C153.9,126.1,153.9,126.3,153.8,126.6z M146.1,136.2C146.1,136.2,146.1,136.2,146.1,136.2C146.1,136.2,146.1,136.2,146.1,136.2
						L146.1,136.2z M145,133.8c-0.2-0.1-0.5-0.3-0.7-0.4c-0.6,0.2-1.2,0.3-1.6,0.3c0,0.1,0,0.4,0,0.5l1.4,2.4h0.2l1.8-0.3
						c0.1,0,0.2-0.1,0.3-0.1L145,133.8z M148.6,132.1L148.6,132.1C148.6,132.2,148.6,132.2,148.6,132.1L148.6,132.1z M147.3,135.9
						C147.3,135.9,147.3,135.8,147.3,135.9l2.4-1.1c0.1,0,0.1-0.1,0.2-0.1c0,0,0.1,0,0.1-0.1l-1.4-2.4c-0.2-0.1-0.5-0.2-0.7-0.3
						c-0.3,0.2-0.7,0.4-1.1,0.5c-0.4,0.2-0.7,0.3-1.1,0.5c0,0.2-0.1,0.5-0.1,0.6l1.4,2.4C147.1,135.9,147.2,135.9,147.3,135.9z
						 M134.9,123.7c-0.1,0.5,0,0.8,0.3,1c0.2,0.2,0.6,0.3,1,0.3c0.4,0,0.8,0,1.4-0.1c0.5-0.1,1-0.2,1.6-0.4c0.6-0.2,1.2-0.4,1.8-0.7
						c0.1-0.1,0.2-0.1,0.4-0.2c0.6-0.3,1.2-0.6,1.8-1c2.8-1.7,5.2-3.8,5.8-5.3c0.1-0.1,0.1-0.3,0.1-0.4c0-0.2,0-0.4,0-0.6
						c-0.1-0.2-0.2-0.4-0.4-0.5c-0.2-0.1-0.5-0.2-0.9-0.2c-0.4,0-0.8,0-1.3,0.1c-0.6,0.1-1.2,0.3-2,0.5c-0.6,0.2-1.2,0.5-1.8,0.8
						c-0.5,0.3-1,0.5-1.5,0.8c-3.1,1.8-5.7,4.1-6.2,5.7C135,123.5,134.9,123.6,134.9,123.7z M136.5,122.7c0.4-1.2,2.4-3.1,4.8-4.4
						c0.4-0.2,0.8-0.4,1.2-0.6c0.5-0.2,1-0.4,1.4-0.6c0.6-0.2,1.1-0.3,1.5-0.4c0.4-0.1,0.7-0.1,1-0.1c0.3,0,0.5,0.1,0.7,0.2
						c0.2,0.1,0.3,0.2,0.3,0.4c0,0.1,0,0.3,0,0.4c0,0.1-0.1,0.2-0.1,0.3c-0.5,1.2-2.3,2.8-4.5,4.1c-0.5,0.3-0.9,0.5-1.4,0.8
						c-0.1,0-0.2,0.1-0.3,0.1c-0.5,0.2-1,0.4-1.4,0.6c-0.4,0.1-0.8,0.3-1.2,0.3c-0.4,0.1-0.8,0.1-1.1,0.1c-0.4,0-0.6-0.1-0.8-0.2
						c-0.2-0.2-0.3-0.5-0.2-0.8C136.5,122.8,136.5,122.7,136.5,122.7z M139.3,126.8c0.2,0,0.4-0.1,0.6-0.2c0.2,0,0.3-0.1,0.5-0.1
						c0.1,0,0.3-0.1,0.4-0.1c0.1,0,0.3-0.1,0.4-0.1c0.1,0,0.3-0.1,0.4-0.2c0.1,0,0.2-0.1,0.4-0.2c0.1,0,0.2-0.1,0.4-0.2
						c0.1,0,0.2-0.1,0.3-0.1c0,0,0.1,0,0.1,0c0.1-0.1,0.2-0.1,0.4-0.2c0.1-0.1,0.2-0.1,0.4-0.2c0.1-0.1,0.2-0.1,0.4-0.2
						c0.1-0.1,0.2-0.1,0.4-0.2c0.1-0.1,0.2-0.1,0.4-0.2c0.1-0.1,0.2-0.1,0.4-0.2c0.1-0.1,0.3-0.2,0.4-0.3c0.1-0.1,0.3-0.2,0.4-0.3
						c0.2-0.1,0.3-0.2,0.5-0.3c0.2-0.1,0.4-0.3,0.6-0.4c0.3-0.2,0.5-0.4,0.8-0.6c0.5-0.4,1-0.8,1.4-1.3c0.2-0.2,0.4-0.4,0.5-0.6
						c0.1-0.1,0.2-0.2,0.3-0.4c0.1-0.1,0.1-0.2,0.2-0.3c0.1-0.1,0.1-0.2,0.2-0.3c0-0.1,0.1-0.2,0.1-0.2c0-0.1,0.1-0.1,0.1-0.2
						c0-0.1,0.1-0.1,0.1-0.2c0-0.1,0-0.1,0.1-0.2c0,0,0,0,0-0.1c0,0,0-0.1,0-0.1c0-0.1,0-0.1,0-0.2c0,0,0-0.1,0-0.1
						c0-0.1,0-0.1,0-0.1c0-0.1,0-0.1,0-0.1c0,0,0-0.1-0.1-0.1l-0.1-0.1l-0.7-1.2c0,0,0,0.1,0.1,0.1c0,0,0,0.1,0,0.1c0,0,0,0.1,0,0.1
						c0,0,0,0.1,0,0.1c0,0,0,0.1,0,0.2c0,0,0,0.1,0,0.1c0,0,0,0,0,0.1c0,0.1,0,0.1,0,0.2c0,0.1,0,0.1-0.1,0.2c0,0.1-0.1,0.1-0.1,0.2
						c0,0.1-0.1,0.2-0.1,0.2c0,0.1-0.1,0.2-0.2,0.3c-0.1,0.1-0.1,0.2-0.2,0.3c-0.1,0.1-0.2,0.2-0.3,0.4c-0.2,0.2-0.3,0.4-0.5,0.6
						c-0.4,0.4-0.9,0.8-1.4,1.3c-0.2,0.2-0.5,0.4-0.8,0.6c-0.2,0.1-0.4,0.3-0.5,0.4c-0.2,0.1-0.3,0.2-0.5,0.3
						c-0.1,0.1-0.3,0.2-0.4,0.3c-0.1,0.1-0.3,0.2-0.4,0.2c-0.1,0.1-0.2,0.1-0.4,0.2c-0.1,0.1-0.2,0.1-0.4,0.2
						c-0.1,0.1-0.2,0.1-0.4,0.2c-0.1,0.1-0.2,0.1-0.4,0.2c-0.1,0.1-0.2,0.1-0.4,0.2c-0.1,0.1-0.2,0.1-0.4,0.2c0,0-0.1,0-0.1,0
						c-0.1,0-0.2,0.1-0.3,0.1c-0.1,0.1-0.2,0.1-0.4,0.2c-0.1,0.1-0.2,0.1-0.4,0.2c-0.1,0.1-0.3,0.1-0.4,0.2c-0.1,0-0.3,0.1-0.4,0.2
						c-0.1,0.1-0.3,0.1-0.4,0.1c-0.2,0.1-0.3,0.1-0.5,0.2c-0.2,0.1-0.4,0.1-0.6,0.2c-1.6,0.4-2.7,0.3-3-0.3l0.7,1.3
						C136.6,127.1,137.7,127.2,139.3,126.8z M133.2,75.6c2.5-1.4,5.5-3,8.6-2.8l-0.3-1.3l0.2-0.5c-0.8,0.7-1.5,0.9-2.9,0.7
						c-1-0.1-2.7-1.4-3.8-1.5c-1.4-0.1-3.8,0.9-5,1.4c0,0,2.5-1.2,3.3-1.6c0.8-0.4,1.6-0.5,2.5-0.4c1,0.1,2,1.3,3.5,1.3
						c0.9,0,1.3-0.3,1.8-0.8c0.3-0.3,0.9-0.9,1.4-1.3l1.2-2.8c-1.2-0.4-3.1-1.1-5.7-2.5c-0.6-0.3-1-1-1.5-0.3c-4.1,5.2-6,5.8-6,5.8
						c2-2,3.7-4.6,5.6-6.9c0.5-0.3,1-0.3,1.5,0.1l2.2,1.4c1.6,1,3.2,1.6,4.1,2l0.1-0.2l-6.5-3.5c-1.1-0.8-1.9-0.4-2.4,0.3l-5.2,6.2
						l-2.5,2.7c1.7,0.7,3.3,1.7,4.8,3.3L133.2,75.6z M141,67l0.3-0.5l0.3,0.5l0.6,0.1l-0.4,0.4l0.1,0.6l-0.5-0.3l-0.5,0.3l0.1-0.6
						l-0.4-0.4L141,67z M139.1,68.8l0.3-0.6l0.3,0.6l0.6,0.1l-0.5,0.4l0.1,0.6l-0.6-0.3l-0.6,0.3l0.1-0.6l-0.5-0.4L139.1,68.8z
						 M136.4,67.7l0.3-0.5l0.3,0.5l0.6,0.1l-0.4,0.4l0.1,0.6l-0.5-0.3l-0.5,0.3l0.1-0.6l-0.4-0.4L136.4,67.7z M136.9,86.9l3.4,0.9
						c0,0,1.4-0.8,1.7-1.4l0.4-2l-1.5,0.3c-0.4,0.7-0.8,2.4-1.1,2l-0.6-2.1c0,0-0.1,0-0.4,0c-1.7-1.2-3.1-3.6-4.3-6.7l-0.7,0.7
						c1.3,3.2,3,5.2,4.8,6c-0.8,0-2.1-0.1-2.4-0.2C136.2,84.5,136.8,85.9,136.9,86.9z M140.2,98.5c0,0.2,0.2,0.3,0.5,0.3
						c0.2,0,0.5-0.1,0.5-0.3s-0.2-0.3-0.5-0.3C140.4,98.2,140.2,98.3,140.2,98.5z M141,94.7c-0.2,0-0.5,0.1-0.5,0.3
						c0,0.2,0.2,0.3,0.5,0.3c0.2,0,0.5-0.1,0.5-0.3C141.4,94.8,141.2,94.7,141,94.7z M139.9,90.2c0.4,0,0.7-0.2,0.7-0.5
						c0-0.3-0.3-0.5-0.7-0.5c-0.4,0-0.7,0.2-0.7,0.5C139.2,90,139.5,90.2,139.9,90.2z M140.8,92.8c-0.3,0-0.6,0.2-0.6,0.4
						c0,0.2,0.3,0.4,0.6,0.4c0.3,0,0.6-0.2,0.6-0.4C141.4,93,141.2,92.8,140.8,92.8z M142.9,94.5c-0.2,0-0.5,0.1-0.5,0.3
						c0,0.2,0.2,0.3,0.5,0.3c0.2,0,0.5-0.1,0.5-0.3C143.3,94.7,143.1,94.5,142.9,94.5z M141.2,91.5c0-0.3-0.3-0.5-0.7-0.5
						c-0.4,0-0.7,0.2-0.7,0.5c0,0.3,0.3,0.5,0.7,0.5C140.9,91.9,141.2,91.7,141.2,91.5z M143.2,96.6c0-0.2-0.2-0.3-0.5-0.3
						c-0.3,0-0.5,0.1-0.5,0.3c0,0.2,0.2,0.3,0.5,0.3C143,96.9,143.2,96.8,143.2,96.6z M141.3,96.8c0-0.2-0.2-0.3-0.5-0.3
						c-0.2,0-0.5,0.2-0.5,0.3c0,0.2,0.2,0.3,0.5,0.3C141.1,97.1,141.3,96.9,141.3,96.8z M142.1,98.4c0,0.2,0.2,0.3,0.5,0.3
						c0.3,0,0.5-0.1,0.5-0.3c0-0.2-0.2-0.3-0.5-0.3C142.3,98.1,142.1,98.2,142.1,98.4z M142.8,92.7c-0.3,0-0.6,0.2-0.6,0.4
						c0,0.2,0.3,0.4,0.6,0.4c0.3,0,0.6-0.2,0.6-0.4C143.3,92.8,143.1,92.7,142.8,92.7z M142.5,90.8c-0.4,0-0.7,0.2-0.7,0.5
						c0,0.3,0.3,0.5,0.7,0.5c0.4,0,0.7-0.2,0.7-0.5C143.1,91,142.8,90.8,142.5,90.8z M141.8,89c-0.4,0-0.7,0.2-0.7,0.5
						c0,0.3,0.3,0.5,0.7,0.5c0.4,0,0.7-0.2,0.7-0.5C142.5,89.3,142.2,89,141.8,89z"/>
				</g>
			</g>
			<g>
				<path class="st2" d="M98,236.2c-1.8,2.8-3.5,4.3-6.9,4.7c-1.6-0.6-2.6-0.6-3.9-1.9c-0.4,0.6-0.9,1.1-1.3,1.8
					c-0.1,0.6-0.1,1.3-0.1,1.9c0,0.7,0.1,1.5,0.1,2.3c0.1,1.5,1.6,2.6,1.6,3.8c0,0.4-0.4,0.7-0.8,0.8c-0.5-0.2-0.7-0.7-1.1-1
					c-0.5-0.4-2.3-0.7-3-0.7c-2.8,1.2-4,2.8-5.5,5.2c-0.1,0.4-0.1,0.9-0.1,1.3c0,0.9,0.1,1.7,0.3,2.5c0.7,0.9,1.6,2,2.9,2
					c2.4,0,4.8-0.7,7.2-1.2c2.3-0.5,4.6-1.8,6.8-2.8c0.7-0.4,2.7-3.1,3.1-3.1c0.2,0,0.4,0.1,0.4,0.3c0,0.3-1.1,1.8-1.3,2.1
					c-3.6,4.1-12.1,6.9-17.5,6.9c-2.8,0-3.9-2.3-3.9-4.8c0-1.1,0.1-2.2,0.5-3.2c1.2-3.4,5.3-6.9,9.1-6.7c-0.2-0.7-0.3-1.3-0.3-2.1
					c0-2,1-4.7,2.3-6.2c-1.1-1.1-1.9-4.3-1.9-5.9c0-0.3,0.3-0.8,0.6-0.8c0.2,0,0.4,0.1,0.6,0.1c0.3,0.9,0.7,1.8,1,2.7
					c0.2,0.6,0.4,1.2,0.8,1.7c0.1,0.1,0.4,0.3,0.5,0.5c1.6-1.5,5.4-4.5,7.6-4.5c1.3,0,3.2,0.6,3.2,2.1
					C98.9,234.9,98.4,235.6,98,236.2z M95.8,233.5c-1.5,0-5.9,3.1-7.1,4.1c0.7,0.9,1.9,2.1,3.1,2.1c1.7,0,5.6-3,5.6-4.8
					C97.3,234.1,96.6,233.5,95.8,233.5z"/>
				<path class="st2" d="M107.7,247.9c0,1.8-1.6,3.3-2.3,4.2c-0.3,0.9-0.3,2.1-0.9,3.5c-0.2,0.5-0.9,1.4-0.9,1.5
					c0.1,0.3,1.2-0.3,1.3-0.4c1.2-0.7,1.8-1.1,2.5-1.4c0.5-0.3,0.8-0.3,0.2,0.3c-0.4,0.4-2,1.4-2.7,1.8c0,0-2,1.1-2.3,1.2
					c-0.1,0-1.8,2.5-2.3,2.8c-0.6,0.3-1.6,0.3-2.3,0.3c-0.2,0-0.6-0.3-0.7-0.4c-0.6-1.1,1.4-2.2,1.8-2.3c0.1-0.1,0.4-0.3,0.6-0.4
					c0.1,0,1.6-0.7,1.8-0.7c0.4-0.1,2.2-2.8,2.5-4.7c0-0.1,0-0.2-0.1-0.3c-0.2-0.1-0.5,0.1-0.7,0.2c-0.4,0.2-1,0.7-1.1,0.7
					c-1,0.6-1.6,0.8-3.1,1.6c-0.4,0.2-0.8,0.4-1,0.5c-0.1,0-0.1,0-0.1-0.1c0-0.3,0.8-0.7,1-0.8c1.8-1.2,4.4-2.8,6-4.2
					c0.7-1.3,1.8-3.4,2.4-3.4C107.2,247.4,107.7,247.7,107.7,247.9z M99.8,260.2c0.4-0.2,0.8-0.7,1.1-1.1
					C98.5,259.7,98.6,260.8,99.8,260.2z"/>
				<path class="st2" d="M120.9,248c-2.8,2.7-7.8,7.9-8.1,8.4c-1.2,1.1-4.6,5.3-8.1,7c-0.7,0.3-1.2-0.5-0.9-0.8
					c3.4-3.1,6.8-6.1,9.4-9.5c0.1-0.1,0-0.3-0.2-0.3c-0.3,0-4,2.2-5,2.8c-0.8,0.4-1.3,0.1-0.6-0.3c1.6-0.9,8.3-3.9,13-9.7
					c0.6-1.3,0.1-1.1-0.5-1.1c-2,0.1-4.8,0-9,0.3c-3,0.3-6.7,0.2-9.7,0.2c-1.9,0-3.8,0-5.8,0c-0.6,0-1-0.9,0.4-0.9h5.7
					c2.6,0,5.8-0.1,8.4-0.2c6.1-0.3,8.1-0.6,10.7-0.6c2,0,2.1,0.1,3.6-1c2.6-2.2,6.7-6.1,8-6.1c0.7,0,0.6,0.7,0.6,1.2
					c0,0.5-3.5,3.4-5.3,4.9c-0.6,0.5-0.3,0.7,0.5,0.7c0.7,0,1.5-0.1,2.2-0.1c2.6,0,5.3,0,7.9,0.5c0,0,3.2,0.3,3,1.1
					c-0.5,1.2-1.6,0.4-2.3,0.1c-2.5-0.9-8.4-0.5-9.6-0.5c-1.1,0-2.3,0.2-3.4,0.4c-0.3,0-0.5,0-1.5,0.7L120.9,248z"/>
				<path class="st2" d="M123.2,256.4c0,0.7-0.9,1.6-1.3,1.6c-0.6,0-1.8-0.3-1.8-1.1c0-0.2,1.5-1.8,2.3-1.8c0.3,0,0.7,0.9,0.8,1.2
					C123.2,256.3,123.2,256.3,123.2,256.4z"/>
				<path class="st2" d="M161.7,237.5c0.1,0.6-2.3,2.4-2.6,2.6c-1.4,1.3-3.2,2.9-4.7,4.1c-0.5,0.6-1.1,1.7-2.1,2.1
					c-1.7,2-6.6,7.1-8.2,9.1c-0.7,0.9-3.2,3.1-3.7,3.1s-1-0.1-1.2-0.7c-0.1-0.3,2.6-2.7,2.8-2.9c1-0.9,4.5-4.7,4.5-4.8
					c0.1-0.3,5-5,4.7-5.6c0-0.1-0.1-0.3-0.3-0.3c-0.1,0-0.3,0.1-0.4,0.1c0,0-1.1,0.6-1.2,0.6c-2.3,0.7-4.6,1.3-6.7,2.1
					c-0.2,0.1-2.3,0.5-2.6,0.5c-0.2,0-0.3-0.1-0.4-0.3c-0.4-1,3.4-1.4,3.9-1.6c1.8-0.7,4.2-0.9,5.6-1.5c1.4-0.6,2.9-1,3.8-1.8
					c0.9-0.6,2.9-1.7,4.1-2.3c0.6-0.4,2.8-3,4.1-3C161.1,237,161.6,237.2,161.7,237.5z"/>
				<path class="st2" d="M167.3,243.2c-0.8,1-1.9,1.9-2.8,2.9c-1.1,1.1-1.9,2.5-3,3.6c-0.8,0.8-1.7,1.5-2.5,2.4
					c-1.7,1.9-3.4,3.8-5.1,5.6c-2,2.1-4.2,4-6.2,6.1c-0.4,0.4-0.9,0.7-1.5,0.7c-0.5,0-0.9-0.6-0.9-1c0-1,1.7-2.5,2.6-2.8
					c0.6-0.2,1-0.2,1.6-0.7c0.5-0.4,0.9-1,1.3-1.6c1-1.2,2.4-2.1,3.5-3.1c1.7-1.5,3.1-3.3,4.7-4.9c0.9-1,2.1-1.7,3-2.6
					c-1.1,0.6-2.6,1.2-4,1.2c-0.9,0-1.9-0.5-1.9-1.5c0-2.1,6.3-6.5,8.2-6.5c0.2,0,0.4,0.2,0.4,0.4c0,0.1-0.3,0.3-0.3,0.5
					c-0.4,0.9-1,0.9-1.9,1.2c-1.7,0.4-4.7,2.5-4.7,4.5c0,0.3,0.3,0.4,0.5,0.4c0.4,0,0.9-0.3,1.3-0.5c2.6-1.1,4.5-1.8,5.6-4.7
					c0.2-0.6,0.3-1.5,1.2-1.5c0.6,0,1.2,0.5,1.2,1.1C167.7,242.6,167.6,242.9,167.3,243.2z"/>
				<path class="st2" d="M186.2,237.2c0,0.4-1,0.9-2.5,1.6c-1.6,0.7-3.8,1.2-5.3,2.7c-0.3,0.2-0.4,0.3-0.6,0.4
					c-1.2,0.8-2.6,2.1-3.7,3.1c-0.5,0.3-2.7,2-2.7,3.1c0,0,0,0.3,0.2,0.3c1.9,0,4.4-1.7,5.6-2.5c0,0,2.1-1.5,3.5-2.5
					c2.2-1.8,4.6-4,5.3-4c0.3,0,0.7,0.3,0.7,0.6c0,0.4-1.5,1.8-3.3,3.2c-1.5,1.2-2.8,2.3-3.7,3.2c-0.1,0.1-0.6,0.5-0.7,0.6
					c-0.6,0.3-0.8,0.9-1.2,1.3c-0.3,0.4-0.7,0.7-1.1,1.1c-1,0.9-1.9,2.1-2.8,3c-0.4,0.4-0.7,0.8-0.9,1c-0.5,0.7-1.6,2-2,2.3
					c-0.6,0.5-1.5,1.4-2.4,2.3c-1.4,1.5-3.1,3.3-4.3,3.3c-0.6,0-1-0.4-0.9-0.7c1.1-0.9,3.4-2.8,4.4-4.1s7-6.9,7-7.4
					c0-0.1-0.1-0.1-0.1-0.1c0,0-0.1,0.1-0.4,0.3c-0.7,0.4-2.5,1.1-4.2,1.1c0,0-1.2,0-1.2-0.7c0-0.9,0.2-1.3,1-2.1c1.6-1.8,3.5-4,6-6
					c2.7-2.2,7.8-5,9.5-5C185.9,236.4,186.2,236.9,186.2,237.2z"/>
				<path class="st2" d="M191.3,246.8c0,1.2,1.3,2,1.3,3.2c0,2.4-2.2,5-4,6.4c-0.4,0.3-0.8,0.4-1.2,0.6c-0.7,0.5-0.7,1-1.7,1
					c-1.9,0-2.3-0.9-3.2-2.3c-0.3-0.5-0.7-1.1-0.7-1.7c0-0.2,0.1-0.9,0.4-0.9c2.2,0,1.2,2.4,3.2,2.4c2,0,5.6-3.9,5.6-5.9
					c0-1.2-1.4-3.1-1.1-3.8c0-0.1-0.1-0.3-0.1-0.4c0-1,1.8-1.4,2.5-1.9c0.5-0.4,2.6-2.4,2.6-3.1c0-0.3-0.3-0.7-0.6-0.7
					c-1.3,0-4.5,1.4-5.1,2.6c-0.6,1.3,0,3.6-2.3,3.6c-0.4,0-0.8-1.1-0.8-1.5c0-1.1,1.9-3.4,2.8-4c1.3-0.8,2.6-1.5,4-2.1
					c0.3-0.1,0.6-0.4,1-0.4c1,0,2.3,1.2,2.3,2.2C196.2,242.5,191.3,246.1,191.3,246.8z"/>
			</g>
		</g>
	</g>
</g>
</svg>
